<?xml version="1.0" encoding="utf-8"?>
<!-- Generator: Adobe Illustrator 23.0.0, SVG Export Plug-In . SVG Version: 6.00 Build 0)  -->
<svg version="1.1" id="Layer_1" xmlns="http://www.w3.org/2000/svg" xmlns:xlink="http://www.w3.org/1999/xlink" x="0px" y="0px"
	 viewBox="0 0 82 95.9" style="enable-background:new 0 0 82 95.9;" xml:space="preserve">
<style type="text/css">
	.st0{fill:#1B75BC;}
	.st1{fill:#A6228E;}
	.st2{fill:#ED1C24;}
</style>
<g>
	<path d="M24.7,49.3c-1-0.1-1.7-0.5-2-0.9c-0.1-0.2-0.1-0.5,0.1-0.9s0.8-0.9,1.3-1.1c0.6-0.2,1.2,0.5,1.3,0.7L24.7,49.3z"/>
</g>
<path class="st0" d="M22.1,61.5c0.8,0,1.7,0.8,3,2.5c-0.7,2.5-0.9,5.8-0.9,10.2v2.5h0.9l3-0.5l1.5,0.5v1.7l-5.2,4.2V89
	c0,1.5,0.7,2.5,1.9,3l6.3-2.2l0.4,1.7l0.5,0.5v0.5c-2.8,2.3-6,3.4-9.7,3.4c-3.9,0-5.4-4.1-4.6-12.4c-3.2,1.7-4.7,1.5-4.6-0.8v-1.3
	l4.8-2.1l-0.3-4.9c0.8-8.3,1.2-12.4,1.2-12.5L22.1,61.5z"/>
<path class="st1" d="M28.2,0c17.7,1.5,26.6,8.8,26.6,21.8c0,13.9-10.1,25.6-30.3,35.1c-4.4,0-7.3,0.6-8.5,1.9h-2.8
	c-2.6,0-6.1-13.9-10.4-41.7c-1,0-1.9-3.2-2.8-9.5C1.1,3.2,10.6,0.6,28.2,0z M11.2,13.3c3.6,21.1,6.5,32.5,8.5,34.1h1.9
	C37.4,41.1,45.3,31,45.3,17.1v-1c-3.7-5.7-9.1-8.5-16.1-8.5C17.2,8.4,11.2,10.2,11.2,13.3z"/>
<path class="st2" d="M65.8,36.1c2.1,0.7,3,1.7,2.9,3.2c-0.6,1.8-4.5,4-11.7,6.7c-8.6,7.9-13.3,15.9-13.9,23.9l-0.3,3.8
	C42,83.2,46.1,88.3,55.1,89c9.6,0.7,16.8-2,21.4-8.2l4,0.3l1.5,1.6l-0.1,1.5c-3.6,7.4-12.1,11.3-25.6,11.7
	C45.8,95.1,39.1,89.8,36.1,80l-0.7-10.6c1-11.6,9-22.4,24.2-32.1L65.8,36.1z"/>
</svg>
