<?xml version="1.0" encoding="utf-8"?>
<!-- Generator: Adobe Illustrator 22.1.0, SVG Export Plug-In . SVG Version: 6.00 Build 0)  -->
<svg version="1.1" id="Layer_1" xmlns="http://www.w3.org/2000/svg" xmlns:xlink="http://www.w3.org/1999/xlink" x="0px" y="0px"
	 viewBox="0 0 235.5 143.8" style="enable-background:new 0 0 235.5 143.8;" xml:space="preserve">
<style type="text/css">
	.st0{fill:#1B75BC;}
	.st1{fill:#F7941D;}
	.st2{fill:#EC008C;}
	.st3{fill:#A6228E;}
	.st4{fill:#21409A;}
	.st5{fill:#009FBD;}
	.st6{fill:#F26522;}
	.st7{fill:#ED1C24;}
	.st8{fill:#00AEEF;}
	.st9{fill:#39B54A;}
	.st10{fill:#7F3F98;}
</style>
<g>
	<path d="M24.9,52.7c-1-0.1-1.7-0.5-2-0.9c-0.1-0.2-0.1-0.5,0.1-0.9c0.2-0.4,0.8-0.9,1.3-1.1c0.6-0.2,1.2,0.5,1.3,0.7L24.9,52.7z"/>
</g>
<g>
	<path class="st0" d="M86.9,48.8c0.6,0,1.3,0.7,2.2,2.2c-0.5,2.2-0.7,5.1-0.7,8.9v2.2h0.7l2.2-0.4l1.1,0.4v1.5l-3.9,3.7v5.5
		c0,1.3,0.5,2.2,1.4,2.6l4.7-1.9l0.3,1.5l0.4,0.4v0.4c-2.1,2-4.5,3-7.2,3c-2.9,0-4-3.6-3.4-10.8c-2.4,1.5-3.5,1.3-3.4-0.7v-1.1
		l3.6-1.8l-0.2-4.3c0.6-7.2,0.9-10.8,0.9-10.9L86.9,48.8z"/>
	<path class="st1" d="M96.4,52.6c1.7,0,2.5,1.7,2.5,5.2l0.7,9.6h0.4c2.2-3.7,4.2-5.5,6.1-5.5c2.5,0,4.3,3.2,5.4,9.6l-0.1,6.1
		c0,2.5-0.8,3.7-2.5,3.7c-0.5-0.4-1.2-4.8-2.1-13.1l-1.8-2.2c-2,0-3.6,4.9-4.7,14.8l-1.4,1.1h-0.7c-1,0-1.6-2.5-1.8-7.4
		c-1.2-7.8-1.8-13.8-1.8-18.1v-0.4l-0.4-0.4C94.3,54.7,95,53.7,96.4,52.6z"/>
	<path class="st2" d="M120.9,57.3c4.1,0.9,6.1,3,6.1,6.3l0.4,2.2c0,3.2-1.2,4.8-3.6,4.8l-6.5,0.7v0.4c0,2.6,2,4.4,6.1,5.2h0.7
		l3.6-0.7v0.7c-1.6,2.2-3.3,3.3-5,3.3c-3.6,0-6.7-2.7-9.3-8.1l-0.7-3.7c0-3.8,2.5-7.5,7.5-11.1H120.9z M116.6,67.7h1.8
		c4.1,0,6.1-0.5,6.1-1.5v-3.7c0-1.4-0.6-2.2-1.8-2.6C118.6,62,116.6,64.6,116.6,67.7z"/>
</g>
<g>
	<path class="st3" d="M28.4,3.4C46.1,4.9,55,12.2,55,25.2c0,13.9-10.1,25.6-30.3,35.1c-4.4,0-7.3,0.6-8.5,1.9h-2.8
		c-2.6,0-6.1-13.9-10.4-41.7c-1,0-1.9-3.2-2.8-9.5C1.3,6.6,10.8,4,28.4,3.4z M11.4,16.7c3.6,21.1,6.5,32.5,8.5,34.1h1.9
		c15.8-6.3,23.7-16.4,23.7-30.3v-1c-3.7-5.7-9.1-8.5-16.1-8.5C17.4,11.8,11.4,13.6,11.4,16.7z"/>
	<path class="st4" d="M89.6,0c4.8,0,8,3.5,9.5,10.4c-0.9,5.7-3.8,13.9-8.5,24.6c10.3,3.8,20.4,5.7,30.3,5.7l2.8,4.7
		c0,2.5-2.8,4.7-8.5,6.6C90.2,47.1,76,43.3,72.5,40.8h-1.9c1.4,12.7,3,20.6,4.7,23.7c-1.3,3.8-2.5,5.7-3.8,5.7h-3.8
		c-3.3,0-6.8-17.1-10.4-51.2c0.9-4.4,2.2-6.6,3.8-6.6h1.9l5.7,5.7C74.9,8.2,79.7,2.8,83,1.9L89.6,0z M71.6,33.2v0.9
		c10.7-3.7,16.1-10.7,16.1-20.8V8.5h-3.8C75.7,14.1,71.6,22.3,71.6,33.2z"/>
	<path class="st5" d="M144.1,7.1c10.7,2.2,16.1,7.6,16.1,16.1l0.9,5.7c0,8.2-3.2,12.3-9.5,12.3l-17.1,1.9V44
		c0,6.8,5.4,11.2,16.1,13.3h1.9l9.5-1.9v1.9c-4.3,5.7-8.8,8.5-13.3,8.5c-9.6,0-17.8-7-24.6-20.9l-1.9-9.5c0-9.7,6.6-19.2,19.9-28.4
		H144.1z M132.8,33.6h4.7c10.7,0,16.1-1.3,16.1-3.8v-9.5c0-3.5-1.6-5.8-4.7-6.6C138.1,19.1,132.8,25.8,132.8,33.6z"/>
	<path class="st2" d="M190.2,7.2c5.7,1.3,8.5,2.8,8.5,4.7v3.8c-12.7-0.9-20.6,3.5-23.7,13.3c0,3.8,5.1,8.2,15.2,13.3
		c3.2,3.8,4.7,6.7,4.7,8.5C191.6,61,184.6,66,174.1,66c-4,0-6.8-1.6-8.5-4.7c2.2-2.7,4.9-3.9,8-3.5c3.1,0.4,6.2-1.3,9.1-5l0.9-2.8
		c-12.6-7.5-19-14.8-19-21.8v-3.8C173.1,12.9,181.7,7.2,190.2,7.2z"/>
	<path class="st6" d="M226.9,7.2c5.7,1.3,8.5,2.8,8.5,4.7v3.8c-12.7-0.9-20.6,3.5-23.7,13.3c0,3.8,5.1,8.2,15.2,13.3
		c3.2,3.8,4.7,6.7,4.7,8.5C228.3,61,221.3,66,210.8,66c-4,0-6.8-1.6-8.5-4.7c2.2-2.7,4.9-3.9,8-3.5c3.1,0.4,6.2-1.3,9.1-5l1-2.8
		c-12.6-7.5-19-14.8-19-21.8v-3.8C209.8,12.9,218.4,7.2,226.9,7.2z"/>
</g>
<g>
	<path class="st7" d="M83.7,82.1c2.1,0.7,3,1.7,2.9,3.2c-0.6,1.8-4.5,4-11.7,6.7c-8.6,7.9-13.3,15.9-13.9,23.9l-0.3,3.8
		c-0.8,9.5,3.3,14.6,12.3,15.3c9.6,0.7,16.8-2,21.4-8.2l4,0.3l1.5,1.6l-0.1,1.5c-3.6,7.4-12.1,11.3-25.6,11.7
		c-10.5-0.8-17.2-6.1-20.2-15.9l-0.7-10.6c1-11.6,9-22.4,24.2-32.1L83.7,82.1z"/>
	<path class="st8" d="M107.1,84.4c3.7,0,5.6,3.5,5.6,10.5l1.6,19.6h0.8c4.9-7.5,9.4-11.3,13.5-11.3c5.5,0,9.4,6.5,11.9,19.6
		l-0.2,12.5c0,5-1.9,7.5-5.5,7.5c-1.1-0.9-2.7-9.8-4.6-26.8l-4-4.5c-4.4,0-7.9,10-10.3,30.1l-3.2,2.3h-1.6c-2.2,0-3.5-5-4-15
		c-2.6-15.8-4-28.1-4-36.9v-0.8l-0.8-0.8C102.4,88.5,104,86.5,107.1,84.4z"/>
	<path class="st9" d="M149.6,88.8h0.8l3.2,3v2.3c-1,1.8-2.6,3.1-4.8,3.8c-2.4-1-3.7-2-4-3v-1.5C144.9,90.3,146.5,88.8,149.6,88.8z
		 M151.2,105.3h0.8c2.1,0.7,3.2,2.9,3.2,6.8v11.3c0.8,5.5,2.1,8.3,4,8.3h5.6v2.3c-1.2,1.9-3.3,3.6-6.3,5.3h-1.6
		c-5.5,0-9.2-5.5-11.1-16.6l-0.8-9.8C144.9,107.9,147,105.3,151.2,105.3z"/>
	<path class="st10" d="M170.4,80.1c3.2,0,4.8,5.1,4.8,15.2v29.1l0.8,6.3h1.6l7.9-3.2v2.5c-4.1,5.1-8.3,7.6-12.7,7.6
		c-2.5,0-4.4-4.2-5.6-12.6v-1.3l0.8-6.9c-0.7-17.8-1.8-28.3-3.2-31.6C164.9,83,166.7,81.3,170.4,80.1z"/>
	<path class="st4" d="M215.4,77.1c4.2,0,6.4,6,6.4,18.1c2.1,7.7,3.2,17.5,3.2,29.3c0,11.5-1.3,17.3-4,17.3c-3.2-1-4.8-3-4.8-6
		l0.8-22.6l-0.8-3.8h-0.8c-10.9,0-17.8,4-20.6,12v6c0,4,1.8,6,5.5,6c3.5,0,7.7-3,12.7-9l2.4-0.8v0.8c-3.5,10-8.8,15.1-15.9,15.1
		c-6.6,0-10.8-4.5-12.7-13.5c0-10.9,7.4-18.9,22.2-24.1l6.3,1.5v-0.8l-2.4-21.1v-2.3L215.4,77.1z"/>
</g>
</svg>
