<?xml version="1.0" encoding="utf-8"?>
<!-- Generator: Adobe Illustrator 22.1.0, SVG Export Plug-In . SVG Version: 6.00 Build 0)  -->
<svg version="1.1" id="Layer_1" xmlns="http://www.w3.org/2000/svg" xmlns:xlink="http://www.w3.org/1999/xlink" x="0px" y="0px"
	 viewBox="0 0 465.4 144.1" style="enable-background:new 0 0 465.4 144.1;" xml:space="preserve">
<style type="text/css">
	.st0{fill:#FFFFFF;}
	.st1{fill:#39B54A;}
	.st2{fill:none;stroke:#000000;stroke-miterlimit:10;}
	.st3{fill:#FFFFFF;stroke:#000000;stroke-miterlimit:10;}
	.st4{fill:none;stroke:#000000;}
	.st5{fill-rule:evenodd;clip-rule:evenodd;fill:#1B75BC;stroke:#21409A;stroke-miterlimit:10;}
	.st6{fill-rule:evenodd;clip-rule:evenodd;fill:#EC008C;stroke:#DA1C5C;stroke-miterlimit:10;}
	.st7{fill-rule:evenodd;clip-rule:evenodd;fill:#FFFFFF;stroke:#DA1C5C;stroke-miterlimit:10;}
	.st8{fill:#1B75BC;}
	.st9{fill:#F7941D;}
	.st10{fill:#EC008C;}
	.st11{fill:#A6228E;}
	.st12{fill:#21409A;}
	.st13{fill:#009FBD;}
	.st14{fill:#F26522;}
	.st15{fill:#ED1C24;}
	.st16{fill:#00AEEF;}
	.st17{fill:#7F3F98;}
	.st18{stroke:#000000;stroke-width:0.25;}
</style>
<g>
	<path class="st0" d="M168.5,97.6c-0.2,0.5,0,1,0.3,1.3c0.3,0.3,0.7,0.6,1.1,0.3c0.2-0.1,0.3-0.3,0.4-0.4c0,0,0,0,0,0
		c-0.1,0.1-0.2,0.1-0.2,0.1c-0.5,0.1-1-0.3-1.1-0.8c-0.1-0.5,0.3-0.8,0.8-0.7c0,0,0,0,0,0c0,0,0,0,0,0c0,0,0,0,0,0
		C169.3,97.1,168.7,97,168.5,97.6z"/>
	<path class="st0" d="M168.4,94C168.4,94,168.4,94,168.4,94C168.5,94,168.5,94,168.4,94C168.5,93.9,168.5,93.9,168.4,94
		c-0.3-0.4-0.9-0.5-1.2,0c-0.2,0.4-0.1,1,0.2,1.4c0.2,0.4,0.6,0.6,1,0.5c0.2-0.1,0.3-0.2,0.4-0.4c0,0,0,0,0,0
		c-0.1,0.1-0.2,0.1-0.2,0c-0.5,0-1-0.4-1-0.9C167.5,94.1,168,93.9,168.4,94z"/>
	<path class="st0" d="M167.4,92.2c0.2-0.1,0.4-0.2,0.5-0.3c0,0,0,0-0.1,0c-0.1,0-0.2,0-0.2,0c-0.5-0.1-0.9-0.5-0.9-1
		c0.1-0.5,0.5-0.7,0.9-0.5c0,0,0,0,0,0c0,0,0,0,0,0c0,0,0,0,0,0c-0.3-0.4-0.8-0.6-1.2-0.1c-0.3,0.4-0.3,1-0.1,1.4
		C166.6,92,167,92.4,167.4,92.2z"/>
	<path class="st0" d="M167.3,84.6c0.2,0,0.4,0,0.6-0.1c0,0,0,0-0.1,0c-0.1,0-0.2,0-0.2-0.1c-0.4-0.3-0.6-0.9-0.3-1.4
		c0.3-0.5,0.8-0.4,1.1,0c0,0,0,0,0.1,0c0,0,0,0,0,0c0,0,0,0,0,0c-0.1-0.5-0.4-1-1-0.7c-0.5,0.2-0.7,0.8-0.7,1.3
		C166.7,84.1,166.8,84.6,167.3,84.6z"/>
	<path class="st1" d="M183.1,115.1c-0.1-0.1-0.2-0.2-0.3-0.3c0-2.7-2.5-4.9-4.5-6.4c-0.6-0.5-1.3-0.8-1.8-1.5
		c-0.5-0.7-0.9-1.5-1.3-2.2c-0.4-0.7-0.6-1.4-1-2.1c0-0.1-0.1-0.2-0.1-0.2c0.4-0.2,0.8-0.5,1-1c0.2-0.6,0-1.2-0.5-1.5
		c-0.6-0.4-1.4-0.2-2.1,0.1c-0.1-0.2-0.2-0.4-0.3-0.6c0.5-0.2,0.9-0.4,1.2-0.9c0.3-0.6-2.6-2-2.7-2.2c0.5-0.1-0.2-2.8-0.9-2.7
		c-0.1-0.2-0.1-0.4-0.2-0.6c0.5-0.1,1.1-0.2,1.4-0.6c0.4-0.5,0.5-1,0.1-1.5c-0.4-0.5-1.3-0.7-2.1-0.7c0-0.2,0-0.4,0-0.6
		c0.5,0,1.1,0,1.5-0.3c0.5-0.4,0.6-0.9,0.4-1.4c-0.3-0.5-1-0.9-1.8-1c0-0.2,0-0.4,0-0.6c0.5,0.1,1,0.2,1.5,0
		c0.6-0.3,0.8-0.7,0.7-1.2c-0.2-0.6-0.8-1.1-1.5-1.5c0-0.1,0-0.1,0-0.2c0.1-0.7,0.3-1.4,0.4-2c0.1-0.7-1.9-4-3-4.9
		c-1.3-1.1-2.2-2.6-3.2-4c-0.8-1.2-3.8-4.1-3.9-4c-0.1,0.2-1.8,2.5-2.2,2.8c-0.6,0.4-0.8,1-1.2,1.6c-0.4,0.7-0.9,1.3-1.5,1.8
		c-1.2,1.1-2.6,1.5-4.1,2.1c-1.5,0.6-5.1,3.5-5.5,4.1c-0.3,0.3-0.7,0.8-0.8,1.3c-0.4,0.7-1.1,1.3-1.6,1.8c-0.4,0.4-1,1-0.8,1.6
		c0.3,0.8,1.1,1.4,1.7,2c0.7,0.6,1.4,1.2,2.1,1.9c4.9,5,9.8,9.9,15.1,14.5c2.6,2.3,5.2,4.6,7.8,6.9c0.2,0.2,0.5,0.4,0.7,0.6
		c1.1,0.9,2.3,1.6,3.5,2.4c1.4,0.9,2.7,1.8,4.1,2.6c1,0.5,2.1,1.3,3.2,1.3c0.8,0,1.4-0.6,1.9-1.1
		C182.8,116.4,183.6,115.7,183.1,115.1z"/>
	
		<image style="overflow:visible;" width="122" height="118" xlink:href="1464E5BD002535A4.png"  transform="matrix(0.24 0 0 0.24 142.5807 82.5593)">
	</image>
	
		<image style="overflow:visible;" width="54" height="34" xlink:href="1464E5BD002535A5.png"  transform="matrix(0.24 0 0 0.24 169.9407 108.9593)">
	</image>
	
		<image style="overflow:visible;" width="40" height="31" xlink:href="1464E5BD002535A3.png"  transform="matrix(0.24 0 0 0.24 172.8207 107.0393)">
	</image>
	<path class="st2" d="M171.1,101.4c0.2,0.2,0.4,0.3,0.6,0.3l0,0c0.3-0.3,0.6-0.5,1-0.6c0.1-0.1,0.3-0.1,0.4-0.1
		c0.5-0.1,0.9-0.2,1.4-0.1c0.1,0,0.1,0.1,0.1,0.2c0,0.1-0.1,0.1-0.1,0.1c-0.4,0-0.7,0.1-1.1,0.2c0.2,0.3,0.4,0.6,0.6,0.9
		c0.2-0.2,0.5-0.4,0.6-0.7c0.1-0.1,0.1-0.3,0.1-0.4c0.1-0.5-0.3-1-0.8-1c-0.4,0-0.9,0-1.3,0.2c-0.1,0.1-0.3,0.1-0.4,0.2
		c-0.2,0.1-0.4,0.3-0.6,0.5c-0.1,0.1-0.3,0.1-0.4,0C171.1,101,170.9,101.1,171.1,101.4z"/>
	<path class="st3" d="M169.4,98.1c0.1,0.2,0.4,0.3,0.6,0.4l0,0c0.3-0.3,0.7-0.4,1.1-0.6c0.1,0,0.3-0.1,0.4-0.1
		c0.4-0.1,0.9-0.1,1.4,0.1c0.1,0,0.1,0.1,0.1,0.1c0,0.1-0.1,0.1-0.2,0.1c-0.4,0-0.7,0-1.1,0.1c0.1,0.3,0.3,0.6,0.4,1
		c0.3-0.2,0.6-0.4,0.8-0.6c0.1-0.1,0.2-0.3,0.2-0.4c0.1-0.5-0.2-1-0.7-1.1c-0.4-0.1-0.8-0.1-1.2,0.1c-0.1,0-0.3,0.1-0.4,0.2
		c-0.3,0.1-0.5,0.3-0.7,0.5c-0.1,0.1-0.3,0.1-0.4-0.1C169.4,97.7,169.2,97.8,169.4,98.1z"/>
	<path class="st3" d="M168.4,94.2c-0.2,0-0.4,0.1-0.3,0.4c0.1,0.2,0.3,0.4,0.5,0.5c0.3-0.2,0.7-0.3,1.1-0.4c0.1,0,0.3,0,0.4-0.1
		c0.5,0,1,0,1.4,0.2c0.1,0,0.1,0.1,0.1,0.1c0,0.1-0.1,0.1-0.2,0.1c-0.4-0.1-0.8-0.1-1.2-0.1c0.1,0.4,0.2,0.7,0.3,1
		c0.3-0.2,0.6-0.3,0.9-0.6c0.1-0.1,0.2-0.3,0.3-0.4c0.1-0.5-1.4-1.2-1.9-1.2c-0.1,0-0.3,0.1-0.4,0.1c-0.2,0.1-0.5,0.2-0.7,0.3
		C168.6,94.4,168.4,94.4,168.4,94.2z"/>
	<path class="st3" d="M167.9,90.8c-0.2,0.1-0.3,0-0.3-0.2c-0.2,0-0.5,0.1-0.4,0.3c0.1,0.3,0.3,0.4,0.5,0.5c0.3-0.1,0.7-0.2,1-0.2
		c0.2,0,0.3,0,0.4,0c0.5,0,1,0.2,1.5,0.4c0.1,0,0.1,0.1,0,0.1c0,0.1-0.1,0.1-0.2,0.1c-0.4-0.1-0.8-0.2-1.2-0.2
		c0.1,0.3,0.2,0.7,0.2,1c0,0,0,0.1,0,0.1c0.3-0.1,0.7-0.3,1-0.5c0.1-0.1,0.3-0.3,0.3-0.4c0.2-0.4,0-0.9-0.4-1.1
		c-0.4-0.2-0.9-0.3-1.4-0.3c-0.1,0-0.3,0-0.4,0.1C168.3,90.6,168.1,90.7,167.9,90.8z"/>
	<path class="st3" d="M168.5,87c-0.3,0-0.6,0-0.8,0.1c-0.2,0.1-0.3-0.1-0.3-0.2c-0.2,0-0.5,0-0.4,0.3c0,0.3,0.2,0.5,0.4,0.6
		c0.4-0.1,0.8-0.1,1.2,0c0.1,0,0.3,0.1,0.4,0.1c0.5,0.1,0.9,0.3,1.3,0.6c0.1,0,0.1,0.1,0,0.1c0,0.1-0.1,0.1-0.2,0.1
		c-0.4-0.2-0.7-0.3-1.1-0.4c0,0.4-0.1,0.7-0.1,1.1c0.4-0.1,0.8-0.1,1.1-0.3c0.2-0.1,0.3-0.2,0.4-0.4c0.2-0.4,0.2-0.8-0.2-1.1
		c-0.3-0.2-0.7-0.4-1.1-0.5C168.8,87.1,168.7,87.1,168.5,87z"/>
	<path class="st3" d="M168.1,83.2c-0.2-0.1-0.4-0.2-0.5,0.2c-0.1,0.3,0.1,0.5,0.2,0.7c0.4,0,0.8,0.1,1.1,0.3
		c0.1,0.1,0.3,0.1,0.4,0.2c0.4,0.2,0.8,0.6,1.1,0.9c0,0,0,0.1,0,0.1c-0.1,0.1-0.2,0.1-0.2,0c-0.3-0.2-0.7-0.5-1-0.7
		c-0.1,0.2-0.1,0.4-0.1,0.6c0,0.2,0,0.3,0,0.5c0.3,0,0.7,0,1-0.1c0.2-0.1,0.4-0.1,0.5-0.3c0.3-0.3,0.3-0.7,0-1.1
		c-0.3-0.3-0.6-0.6-1-0.8c-0.1-0.1-0.3-0.1-0.4-0.2c-0.3-0.1-0.5-0.1-0.8-0.1C168.2,83.5,168.1,83.3,168.1,83.2z"/>
	<path class="st0" d="M170.2,100.9c-0.1,0.5,0.1,1,0.5,1.3c0.3,0.3,0.7,0.5,1.1,0.2c0.2-0.1,0.3-0.3,0.3-0.5c0,0,0,0,0,0
		c-0.1,0.1-0.2,0.1-0.2,0.1l0,0c-0.4,0.1-1-0.2-1.2-0.6c-0.2-0.5,0.2-0.8,0.7-0.8c0,0,0,0,0,0c0,0,0,0,0,0c0,0,0,0,0,0
		C170.9,100.4,170.4,100.4,170.2,100.9z"/>
	<path class="st0" d="M166.9,88.5c0.2,0,0.4-0.1,0.5-0.2c0,0,0,0-0.1,0c-0.1,0-0.2,0-0.2,0c-0.4-0.2-0.8-0.7-0.6-1.2
		c0.1-0.5,0.7-0.6,1-0.3c0,0,0,0,0,0c0,0,0,0,0,0c0,0,0,0,0,0c-0.2-0.4-0.7-0.8-1.1-0.4c-0.4,0.3-0.5,0.9-0.3,1.4
		C166.2,88.1,166.5,88.5,166.9,88.5z"/>
	<path class="st0" d="M169.9,99.2c-0.4,0.2-0.8,0-1.1-0.3c-0.3-0.4-0.5-0.9-0.3-1.3c0.2-0.6,0.8-0.5,1.2-0.2c0,0,0,0,0,0
		c0,0,0,0,0,0c0,0,0,0,0,0c-0.4-0.1-0.9,0.2-0.8,0.7c0.1,0.5,0.6,0.8,1.1,0.8c0.1,0,0.2,0,0.2-0.1c0,0,0,0,0,0
		C170.2,99,170.1,99.1,169.9,99.2z"/>
	<path class="st0" d="M168.4,95.8c-0.4,0.2-0.8-0.1-1-0.5c-0.3-0.4-0.4-0.9-0.2-1.4c0.3-0.5,0.8-0.4,1.2-0.1c0,0,0,0,0,0
		c0,0,0,0,0,0c0,0,0,0,0,0c-0.4-0.1-0.9,0.1-0.8,0.6c0,0.5,0.5,0.9,1,0.9c0.1,0,0.1,0,0.2,0c0,0,0,0,0,0
		C168.8,95.6,168.6,95.7,168.4,95.8z"/>
	<path class="st0" d="M167.7,90.4C167.7,90.4,167.7,90.4,167.7,90.4c-0.4-0.2-0.9,0-1,0.5c0,0.5,0.4,1,0.9,1c0.1,0,0.1,0,0.2,0
		c0,0,0,0,0.1,0c-0.1,0.1-0.3,0.2-0.5,0.3c-0.4,0.1-0.8-0.2-1-0.6c-0.2-0.5-0.2-1,0.1-1.4C166.9,89.7,167.4,90,167.7,90.4
		C167.7,90.4,167.7,90.4,167.7,90.4C167.7,90.4,167.7,90.4,167.7,90.4z"/>
	<path class="st0" d="M168.4,83C168.3,83,168.3,83,168.4,83c-0.3-0.3-0.8-0.5-1.1,0c-0.3,0.5-0.1,1.1,0.3,1.4c0,0.1,0.1,0.1,0.2,0.1
		c0,0,0,0,0.1,0c-0.2,0.1-0.4,0.1-0.6,0.1c-0.4-0.1-0.6-0.5-0.6-1c0-0.5,0.3-1.1,0.7-1.3C168,82,168.3,82.5,168.4,83
		C168.4,83,168.4,83,168.4,83C168.4,83,168.4,83,168.4,83z"/>
</g>
<path class="st4" d="M159.9,50.8c6,6.5,7.4,13.3,8.3,22c0.5,3.9,0.3,8,0.8,11.7"/>
<path class="st5" d="M441.1,14.1c-1.7-1.7,0.1-0.3,3.6-3.3c0-1.5-1.7-1.5-3.4-1.5c4.7-2.1,9.4-0.2,15.2-0.1
	c8.2,38.6,7.5,89.1,8.4,132.3c-11.5,1.5-24.7,1.2-36.7,2.2c-2.3-28.5,4.3-65.4-6.6-85.9c-12.5,19.6-6.4,59.1-12.7,85.2
	c-11.6-1.7-22.8-3.7-35.8-4c4.1-43.3,6-95.3,17.9-132.7c16,2.1,32.4,0,49.6,3.1c-0.8,4.5-3.2-0.9-6.9,0.4
	C433.9,13.3,438,13.2,441.1,14.1z M403.2,10.7c0-0.9,0.1-1.8,0.1-2.8c-1.1,0-2.3-0.1-3.4-0.1C399.1,10.5,401.8,10,403.2,10.7z
	 M404.6,11.4c1.6-0.2,2.6,0.2,3.4,0.8c-0.4-1.2,1-4-0.5-4.2c-0.2,1.8-1.2-1-2.8-0.1C404.6,9.1,404.6,10.2,404.6,11.4z M409.5,8.8
	c-0.3,1.6,0,2.7,0.6,3.5c1.2,0,2.3,0.1,3.4,0.1c0.1-1.4,0.1-2.8,0.1-4.1C412,8.1,410.3,8,409.5,8.8z M417.6,13.2
	c1.2,0,2.3,0.1,3.5,0.1c0.8-0.8,0.9-2.4,0.8-4.1c-0.8-0.8-2.4-0.9-4.1-0.8C417.7,10,417.7,11.6,417.6,13.2z M422.6,9.3
	c-0.2,1.7-0.2,3.3,0.5,4.2c1.1,0,2.3,0.1,3.5,0.1c0.1-1.6,0.1-3.2,0.2-4.8C425.1,8.6,423.5,8.5,422.6,9.3z M433.5,13.8
	c1.2-2.1-1.3-5.7-5.3-5C428.8,11.5,429.2,14.5,433.5,13.8z M453,10.4c-0.5,2.9,1.7,3.3,3.3,4.3c-0.2-2.1-0.2-4.2-1.9-4.9
	C454.2,10.2,453.8,10.5,453,10.4z M391.4,12.3c1.2,0,2.3,0.1,3.5,0.1c0-1.4,0.1-2.8,0.1-4.1c-1.1,0-2.3-0.1-3.5-0.1
	C391.5,9.5,391.5,10.9,391.4,12.3z M446.6,14.3c1.2,0,2.3,0.1,3.5,0.1c0-0.9,0.1-1.8,0.1-2.8c-1.2,0-2.3-0.1-3.5-0.1
	C446.7,12.4,446.6,13.3,446.6,14.3z M403.1,12.7c0.3-2.1-2.2-1.5-3.4-2.2C398.8,13.2,401.3,12.6,403.1,12.7z M390,14.3
	c4.8,2,11.4,5.8,17.1,4.8C401,18.6,392.3,13.8,390,14.3z M409.6,26.1c3.3,1.8,4.2-11.2,3.2-11.6C411.8,17.4,412.5,24.1,409.6,26.1z
	 M434.5,23.5c-1.1-2.9,0.2-8.1-1.8-8.4C433.5,17.8,432.3,22.3,434.5,23.5z M436,21.5c6.3-1.6,17.4-1.9,19.5-5.5
	C449.9,18.8,441.6,18.7,436,21.5z M423.7,17.6c0,1.1-0.1,2.3-0.1,3.5c1.2,0,2.3,0.1,3.5,0.1c0-1.2,0.1-2.3,0.1-3.5
	C425,17.2,425.8,17.2,423.7,17.6z M414.6,21.4c2.6-0.8,4.7,2.2,6.2,0.2C419.4,21.4,413.4,19.8,414.6,21.4z M401.3,25.8
	c0.9,2-2,3.4-0.1,4.1c1-0.9,0.8-3,0.9-4.8c-2.2-1.8-5.8-2.2-8.9-3.1c-1.1,1.7-0.4,5.3-1.6,6.9c3.1,0.2,0.2-6,3-6.1
	C395.8,24.6,399.9,23.9,401.3,25.8z M426.4,37.7c2.8-0.8,1.8-12.6,1.1-12.4C426.8,32.1,427.3,33,426.4,37.7z M388,31.5
	c8.1,3.4,21.7,2.9,20.3-6.9C407.8,34.8,394.9,32.2,388,31.5z M457,33.3c-5-0.1-8.2,1.7-13.9,0.9c-3.2-1-5-6.9-6.7-7.1
	C435.8,33.7,449.7,37.8,457,33.3z M421.3,45.2c4.2,0,5.1-3.6,6.5-6.7C425.1,40.2,424.9,44.4,421.3,45.2z M460.5,50.7
	c-0.4-1.9-0.1-4.3-1.2-5.6C459.8,46.9,457.8,51,460.5,50.7z M420.5,48.6c16.6,10,13.7,53.4,13.1,77.2c-0.1,5.4-2,11.4,0.8,15.2
	c1.6-3.6,8.2-2.1,12.5-2.3c5.2-0.2,10.6,0.1,13.9-1.6c-8.7-0.1-17,0.9-27,1.1C433.7,104.9,440.7,61.1,420.5,48.6z M417.6,53.3
	c-14.8,18.8-7.9,57.5-14.7,83.8c-8.2-0.8-18.6-3.1-26.2-2.3c4.7,1.3,17,1.5,23.4,2.9c2,0.4,3.7,1.3,4.1,0.8
	C408.6,112.8,406,67.7,417.6,53.3z"/>
<g>
	<path class="st6" d="M82.9,0.6C85.7,26,44.4,27.8,45.7,1.9C25.1,7.2,10.4,17.7,0.6,32.8c6.4,6.1,19.8,21.5,28.6,9.9
		c-0.1-0.7,0.1-0.1,0,0c3.2,16.5,3.6,15.4,5.3,29.1c3.2,24.8,0.5,53.4-1.9,66.8c20.7,9.1,61.3,2.1,84.7-8.7
		c-22.7-25.4-14.2-96.4-15.6-89.4c10.3,10.1,21.8-6,28.1-12.4C118.8,14.1,103.8,4.3,82.9,0.6z"/>
	<g>
		<path class="st7" d="M84.2,1.7c0.8,0,0.7,0.8,0.9,1.4C86.9,26.5,42.5,27.7,44.6,3"/>
		<path class="st7" d="M47.1,3.6c9.4,3.5,26.3,2.8,35.5-1.2"/>
	</g>
</g>
<g>
	<path d="M159,53c-1-0.1-1.7-0.5-2-0.9c-0.1-0.2-0.1-0.5,0.1-0.9c0.2-0.4,0.8-0.9,1.3-1.1c0.6-0.2,1.2,0.5,1.3,0.7L159,53z"/>
</g>
<g>
	<path class="st8" d="M221,49.1c0.6,0,1.3,0.7,2.2,2.2c-0.5,2.2-0.7,5.1-0.7,8.9v2.2h0.7l2.2-0.4l1.1,0.4v1.5l-3.9,3.7v5.5
		c0,1.3,0.5,2.2,1.4,2.6l4.7-1.9l0.3,1.5l0.4,0.4V76c-2.1,2-4.5,3-7.2,3c-2.9,0-4-3.6-3.4-10.8c-2.4,1.5-3.5,1.3-3.4-0.7v-1.1
		l3.6-1.8l-0.2-4.3c0.6-7.2,0.9-10.8,0.9-10.9L221,49.1z"/>
	<path class="st9" d="M230.6,52.9c1.7,0,2.5,1.7,2.5,5.2l0.7,9.6h0.4c2.2-3.7,4.2-5.5,6.1-5.5c2.5,0,4.3,3.2,5.4,9.6l-0.1,6.1
		c0,2.5-0.8,3.7-2.5,3.7c-0.5-0.4-1.2-4.8-2.1-13.1l-1.8-2.2c-2,0-3.6,4.9-4.7,14.8l-1.4,1.1h-0.7c-1,0-1.6-2.5-1.8-7.4
		c-1.2-7.8-1.8-13.8-1.8-18.1v-0.4l-0.4-0.4C228.4,54.9,229.1,53.9,230.6,52.9z"/>
	<path class="st10" d="M255,57.6c4.1,0.9,6.1,3,6.1,6.3l0.4,2.2c0,3.2-1.2,4.8-3.6,4.8l-6.5,0.7V72c0,2.6,2,4.4,6.1,5.2h0.7l3.6-0.7
		v0.7c-1.6,2.2-3.3,3.3-5,3.3c-3.6,0-6.7-2.7-9.3-8.1l-0.7-3.7c0-3.8,2.5-7.5,7.5-11.1H255z M250.7,67.9h1.8c4.1,0,6.1-0.5,6.1-1.5
		v-3.7c0-1.4-0.6-2.2-1.8-2.6C252.8,62.3,250.7,64.9,250.7,67.9z"/>
</g>
<g>
	<path class="st11" d="M162.6,3.7c17.7,1.5,26.5,8.8,26.5,21.8c0,13.9-10.1,25.6-30.3,35.1c-4.4,0-7.3,0.6-8.5,1.9h-2.8
		c-2.6,0-6.1-13.9-10.4-41.7c-1,0-1.9-3.2-2.8-9.5C135.5,6.8,144.9,4.3,162.6,3.7z M145.5,16.9c3.6,21.1,6.5,32.5,8.5,34.1h1.9
		c15.8-6.3,23.7-16.4,23.7-30.3v-1c-3.7-5.7-9.1-8.5-16.1-8.5C151.5,12,145.5,13.9,145.5,16.9z"/>
	<path class="st12" d="M223.7,0.3c4.8,0,8,3.5,9.5,10.4c-0.9,5.7-3.8,13.9-8.5,24.6C235,39.1,245.1,41,255,41l2.8,4.7
		c0,2.5-2.8,4.7-8.5,6.6c-24.9-5.1-39.2-8.8-42.7-11.4h-1.9c1.4,12.7,3,20.6,4.7,23.7c-1.3,3.8-2.5,5.7-3.8,5.7h-3.8
		c-3.3,0-6.8-17.1-10.4-51.2c0.9-4.4,2.2-6.6,3.8-6.6h1.9l5.7,5.7c6.2-9.8,10.9-15.2,14.2-16.1L223.7,0.3z M205.7,33.4v0.9
		c10.7-3.7,16.1-10.7,16.1-20.8V8.8H218C209.8,14.4,205.7,22.6,205.7,33.4z"/>
	<path class="st13" d="M278.3,7.3c10.7,2.2,16.1,7.6,16.1,16.1l0.9,5.7c0,8.2-3.2,12.3-9.5,12.3l-17.1,1.9v0.9
		c0,6.8,5.4,11.2,16.1,13.3h1.9l9.5-1.9v1.9c-4.3,5.7-8.8,8.5-13.3,8.5c-9.6,0-17.8-7-24.6-20.9l-1.9-9.5c0-9.7,6.6-19.2,19.9-28.4
		H278.3z M266.9,33.9h4.7c10.7,0,16.1-1.3,16.1-3.8v-9.5c0-3.5-1.6-5.8-4.7-6.6C272.3,19.4,266.9,26,266.9,33.9z"/>
	<path class="st10" d="M324.3,7.5c5.7,1.3,8.5,2.8,8.5,4.7V16c-12.7-0.9-20.6,3.5-23.7,13.3c0,3.8,5.1,8.2,15.2,13.3
		c3.2,3.8,4.7,6.7,4.7,8.5c-3.4,10.1-10.3,15.2-20.9,15.2c-4,0-6.8-1.6-8.5-4.7c2.2-2.7,4.9-3.9,8-3.5c3.1,0.4,6.2-1.3,9.1-5
		l0.9-2.8c-12.6-7.5-19-14.8-19-21.8v-3.8C307.2,13.2,315.8,7.5,324.3,7.5z"/>
	<path class="st14" d="M361,7.5c5.7,1.3,8.5,2.8,8.5,4.7V16c-12.7-0.9-20.6,3.5-23.7,13.3c0,3.8,5.1,8.2,15.2,13.3
		c3.2,3.8,4.7,6.7,4.7,8.5c-3.4,10.1-10.3,15.2-20.8,15.2c-4,0-6.8-1.6-8.5-4.7c2.2-2.7,4.9-3.9,8-3.5c3.1,0.4,6.2-1.3,9.1-5l1-2.8
		c-12.6-7.5-19-14.8-19-21.8v-3.8C344,13.2,352.5,7.5,361,7.5z"/>
</g>
<g>
	<path class="st15" d="M217.8,82.3c2.1,0.7,3,1.7,2.9,3.2c-0.6,1.8-4.5,4-11.7,6.7c-8.6,7.9-13.3,15.9-13.9,23.9l-0.3,3.8
		c-0.8,9.5,3.3,14.6,12.3,15.3c9.6,0.7,16.8-2,21.4-8.2l4,0.3l1.5,1.6l-0.1,1.5c-3.6,7.4-12.1,11.3-25.6,11.7
		c-10.5-0.8-17.2-6.1-20.2-15.9l-0.7-10.6c1-11.6,9-22.4,24.2-32.1L217.8,82.3z"/>
	<path class="st16" d="M241.2,84.6c3.7,0,5.6,3.5,5.6,10.5l1.6,19.6h0.8c4.9-7.5,9.4-11.3,13.5-11.3c5.5,0,9.4,6.5,11.9,19.6
		l-0.2,12.5c0,5-1.9,7.5-5.5,7.5c-1.1-0.9-2.7-9.8-4.6-26.8l-4-4.5c-4.4,0-7.9,10-10.3,30.1l-3.2,2.3h-1.6c-2.2,0-3.5-5-4-15
		c-2.6-15.8-4-28.1-4-36.9v-0.8l-0.8-0.8C236.5,88.8,238.1,86.8,241.2,84.6z"/>
	<path class="st1" d="M283.8,89.1h0.8l3.2,3v2.3c-1,1.8-2.6,3.1-4.8,3.8c-2.4-1-3.7-2-4-3v-1.5C279,90.6,280.6,89.1,283.8,89.1z
		 M285.4,105.6h0.8c2.1,0.7,3.2,2.9,3.2,6.8v11.3c0.8,5.5,2.1,8.3,4,8.3h5.6v2.3c-1.2,1.9-3.3,3.6-6.3,5.3h-1.6
		c-5.5,0-9.2-5.5-11.1-16.6l-0.8-9.8C279,108.1,281.1,105.6,285.4,105.6z"/>
	<path class="st17" d="M304.5,80.4c3.2,0,4.8,5.1,4.8,15.2v29.1l0.8,6.3h1.6l7.9-3.2v2.5c-4.1,5.1-8.3,7.6-12.7,7.6
		c-2.5,0-4.4-4.2-5.6-12.6V124l0.8-6.9c-0.7-17.8-1.8-28.3-3.2-31.6C299,83.2,300.8,81.5,304.5,80.4z"/>
	<path class="st12" d="M349.5,77.4c4.2,0,6.4,6,6.4,18.1c2.1,7.7,3.2,17.5,3.2,29.3c0,11.5-1.3,17.3-4,17.3c-3.2-1-4.8-3-4.8-6
		l0.8-22.6l-0.8-3.8h-0.8c-10.9,0-17.8,4-20.6,12v6c0,4,1.8,6,5.5,6c3.5,0,7.7-3,12.7-9l2.4-0.8v0.8c-3.5,10-8.8,15.1-15.9,15.1
		c-6.6,0-10.8-4.5-12.7-13.5c0-10.9,7.4-18.9,22.2-24.1l6.3,1.5v-0.8l-2.4-21.1v-2.3L349.5,77.4z"/>
</g>
<path class="st18" d="M158.6,50.4c-0.5-0.1-0.8-0.1-0.9,0.4c-2.7-1-6.1-4.3-7.8-2.7c-0.3,0.3-0.6,0.8-0.8,1.6
	c-0.7,3.2,3.2,3,5.9,2.5c1-0.2,1.9-0.4,2.2-0.5c-0.3,0.3-0.8,0.7-1.4,1.2c-0.9,0.7-1.9,1.6-2.5,2.9c0,0,0.1,0.2,0.1,0.2
	c-0.1,0.3-0.2,0.8-0.3,1.3c0.2,0.1,0.3,0.1,0.5,0.1c0-0.3,0.1-0.9,0.2-1.1c0.1,0,0.2,0.1,0.2,0.1c0.5-0.9,3.5-3.7,3.9-4
	c0,0,0.1-0.1,0.1-0.1c0.4,0,0.8-0.1,1.3-0.5c-0.2-0.8-0.5-1.5-0.7-2.3C158.7,49.9,158.6,50.2,158.6,50.4z M154.2,51.6
	c-1.8,0.3-3.9,0.2-3.7-1.4c0.1-0.6,0.3-1,0.6-1.2c1.1-0.7,3.5,1,5.5,2.1C156.1,51.2,155.2,51.5,154.2,51.6z"/>
<g>
	<path class="st0" d="M138.5,114.5c0,0.5-0.2,0.9-0.7,1.2c-0.4,0.2-0.8,0.4-1.1,0c-0.1-0.1-0.2-0.3-0.3-0.5c0,0,0,0,0,0
		c0.1,0.1,0.1,0.1,0.2,0.1c0.4,0.2,1,0,1.3-0.5c0.2-0.5-0.1-0.8-0.5-0.9c0,0,0,0,0,0c0,0,0,0,0,0c0,0,0,0,0,0
		C137.9,113.9,138.4,113.9,138.5,114.5z"/>
	<path class="st0" d="M139.5,111.1C139.5,111.1,139.5,111.1,139.5,111.1C139.5,111.1,139.5,111.1,139.5,111.1
		C139.5,111.1,139.5,111.1,139.5,111.1c0.4-0.3,1-0.3,1.1,0.3c0.1,0.5-0.1,1-0.5,1.3c-0.3,0.3-0.8,0.5-1.1,0.2
		c-0.2-0.1-0.3-0.3-0.3-0.5c0,0,0,0,0,0c0.1,0.1,0.2,0.1,0.2,0.1c0.4,0.1,1-0.1,1.2-0.6C140.4,111.4,140,111.1,139.5,111.1z"/>
	<path class="st0" d="M141,109.7c-0.2-0.1-0.3-0.3-0.4-0.4c0,0,0,0,0,0c0.1,0.1,0.2,0.1,0.2,0.1c0.5,0.1,1-0.3,1.1-0.8
		c0.1-0.5-0.3-0.8-0.8-0.7c0,0,0,0,0,0c0,0,0,0,0,0c0,0,0,0,0,0c0.4-0.3,1-0.4,1.2,0.2c0.2,0.5,0,1-0.3,1.4
		C141.8,109.7,141.4,109.9,141,109.7z"/>
	<path class="st0" d="M143.1,102.3c-0.2,0-0.4-0.1-0.5-0.2c0,0,0,0,0.1,0c0.1,0,0.2,0,0.2,0c0.4-0.1,0.8-0.7,0.6-1.3
		c-0.2-0.6-0.7-0.6-1-0.3c0,0,0,0,0,0c0,0,0,0,0,0c0,0,0,0,0,0c0.2-0.4,0.6-0.9,1.1-0.4c0.4,0.4,0.5,1,0.4,1.5
		C143.8,102,143.5,102.4,143.1,102.3z"/>
	<path class="st1" d="M120.1,129.4c0.4,0.6,0.8,1.4,1.6,1.5c1.1,0.3,2.4-0.2,3.4-0.4c1.6-0.4,3.1-1,4.7-1.4c1.4-0.4,2.7-0.8,4-1.4
		c0.3-0.1,0.6-0.3,0.8-0.4c3.1-1.6,6.2-3.2,9.3-4.7c6.3-3,12.3-6.5,18.4-10.1c0.8-0.5,1.7-0.8,2.5-1.3c0.7-0.4,1.7-0.8,2.2-1.5
		c0.4-0.6-0.1-1.3-0.3-1.8c-0.3-0.7-0.9-1.4-1.1-2.2c-0.1-0.5-0.3-1.1-0.5-1.5c-0.3-0.7-3-4.5-4.3-5.4c-1.2-0.9-2.5-1.7-3.4-3.1
		c-0.4-0.7-0.8-1.4-1-2.2c-0.2-0.7-0.3-1.3-0.8-1.8c-0.3-0.5-1.4-3.1-1.4-3.3c0-0.1-3.7,1.9-4.8,2.8c-1.3,1.1-2.6,2.4-4.1,3.1
		c-1.2,0.6-4.1,3.3-4.1,3.9c0,0.7-0.1,1.4-0.1,2.1c0,0.1,0,0.1,0,0.2c-0.8,0.1-1.5,0.5-1.8,1c-0.3,0.5-0.1,0.9,0.3,1.3
		c0.4,0.3,0.9,0.4,1.4,0.4c0,0.2-0.1,0.4-0.1,0.6c-0.8-0.1-1.5,0.1-2,0.5c-0.4,0.4-0.4,1,0,1.5c0.3,0.4,0.9,0.6,1.4,0.7
		c-0.1,0.2-0.1,0.4-0.2,0.6c-0.8-0.3-1.7-0.3-2.2,0.1c-0.5,0.4-0.6,0.9-0.3,1.5c0.2,0.5,0.7,0.7,1.2,0.9c-0.1,0.2-0.2,0.4-0.3,0.6
		c-0.7-0.3-2,2.1-1.6,2.3c-0.1,0.2-3.3,0.8-3.2,1.5c0.1,0.5,0.5,0.9,0.9,1.2c-0.1,0.2-0.3,0.3-0.4,0.5c-0.6-0.5-1.4-0.8-2-0.6
		c-0.6,0.2-0.9,0.7-0.8,1.3c0,0.5,0.4,0.9,0.7,1.2c-0.1,0.1-0.1,0.1-0.2,0.2c-0.5,0.6-1,1.2-1.5,1.8c-0.6,0.6-1.2,1.3-1.8,1.8
		c-0.6,0.5-1.4,0.7-2.1,1c-2.3,0.9-5.3,2.4-6,5c-0.1,0.1-0.2,0.1-0.3,0.2C119.3,128.2,119.8,129,120.1,129.4z"/>
	
		<image style="overflow:visible;" width="143" height="86" xlink:href="1464E5BD002535AC.png"  transform="matrix(0.24 0 0 0.24 132.5007 106.3193)">
	</image>
	
		<image style="overflow:visible;" width="56" height="24" xlink:href="1464E5BD002535AF.png"  transform="matrix(0.24 0 0 0.24 120.0207 124.7993)">
	</image>
	
		<image style="overflow:visible;" width="44" height="23" xlink:href="1464E5BD002535AD.png"  transform="matrix(0.24 0 0 0.24 120.7407 121.6793)">
	</image>
	<path class="st2" d="M135,117.5c-0.2,0.2-0.4,0.2-0.7,0.1v0c-0.2-0.3-0.5-0.6-0.8-0.9c-0.1-0.1-0.2-0.2-0.4-0.3
		c-0.4-0.2-0.9-0.4-1.3-0.5c-0.1,0-0.1,0.1-0.1,0.1c0,0.1,0,0.1,0.1,0.2c0.3,0.1,0.7,0.3,1,0.5c-0.3,0.2-0.5,0.4-0.8,0.7
		c-0.2-0.3-0.4-0.5-0.4-0.8c0-0.2-0.1-0.3,0-0.4c0.1-0.5,0.5-0.9,1.1-0.8c0.4,0.1,0.8,0.3,1.2,0.5c0.1,0.1,0.2,0.2,0.3,0.3
		c0.2,0.2,0.3,0.4,0.4,0.6c0.1,0.2,0.3,0.2,0.4,0.1C135.1,117.2,135.3,117.3,135,117.5z"/>
	<path class="st3" d="M137.5,114.8c-0.2,0.2-0.4,0.2-0.7,0.2v0c-0.3-0.3-0.6-0.6-0.9-0.8c-0.1-0.1-0.2-0.1-0.4-0.2
		c-0.4-0.2-0.9-0.3-1.3-0.3c-0.1,0-0.1,0.1-0.1,0.1c0,0.1,0.1,0.1,0.1,0.2c0.4,0.1,0.7,0.2,1,0.3c-0.2,0.3-0.4,0.6-0.7,0.8
		c-0.2-0.3-0.4-0.5-0.6-0.8c-0.1-0.2-0.1-0.3-0.1-0.5c0-0.5,0.4-0.9,1-0.8c0.4,0,0.8,0.2,1.1,0.4c0.1,0.1,0.3,0.2,0.4,0.3
		c0.2,0.2,0.4,0.4,0.6,0.6c0.1,0.2,0.3,0.1,0.4,0C137.6,114.5,137.8,114.6,137.5,114.8z"/>
	<path class="st3" d="M139.5,111.3c0.2,0.1,0.4,0.2,0.2,0.5c-0.2,0.2-0.4,0.3-0.6,0.3c-0.3-0.3-0.6-0.5-0.9-0.7
		c-0.1-0.1-0.3-0.1-0.4-0.2c-0.5-0.1-0.9-0.2-1.4-0.2c-0.1,0-0.1,0.1-0.1,0.1c0,0.1,0.1,0.2,0.1,0.2c0.4,0,0.8,0.1,1.1,0.2
		c-0.2,0.3-0.4,0.6-0.6,0.9c-0.3-0.2-0.5-0.5-0.7-0.8c-0.1-0.2-0.1-0.3-0.1-0.5c0-0.5,1.7-0.8,2.1-0.6c0.1,0.1,0.3,0.1,0.4,0.2
		c0.2,0.1,0.4,0.3,0.6,0.5C139.3,111.5,139.5,111.5,139.5,111.3z"/>
	<path class="st3" d="M140.9,108.2c0.1,0.1,0.3,0,0.4-0.1c0.2,0.1,0.4,0.2,0.3,0.4c-0.1,0.2-0.4,0.3-0.6,0.4
		c-0.3-0.2-0.6-0.4-0.9-0.5c-0.1,0-0.3-0.1-0.4-0.1c-0.5-0.1-1-0.1-1.5,0c-0.1,0-0.1,0.1-0.1,0.1c0,0.1,0.1,0.1,0.2,0.1
		c0.4,0,0.8,0,1.2,0.1c-0.2,0.3-0.3,0.6-0.5,0.9c0,0,0,0,0,0.1c-0.3-0.2-0.6-0.4-0.8-0.7c-0.1-0.2-0.2-0.3-0.2-0.5
		c-0.1-0.5,0.2-0.9,0.7-1c0.4-0.1,0.9,0,1.4,0.1c0.1,0,0.3,0.1,0.4,0.2C140.5,107.9,140.7,108,140.9,108.2z"/>
	<path class="st3" d="M141.2,104.4c0.3,0.1,0.5,0.2,0.8,0.3c0.2,0.1,0.3,0,0.3-0.2c0.2,0,0.4,0.1,0.4,0.4c-0.1,0.3-0.3,0.4-0.5,0.5
		c-0.4-0.2-0.7-0.3-1.1-0.3c-0.1,0-0.3,0-0.4,0c-0.5,0-0.9,0.1-1.4,0.3c-0.1,0-0.1,0.1-0.1,0.1c0,0.1,0.1,0.1,0.2,0.1
		c0.4-0.1,0.8-0.1,1.2-0.1c-0.1,0.4-0.1,0.7-0.2,1.1c-0.3-0.2-0.7-0.3-1-0.6c-0.1-0.1-0.2-0.3-0.3-0.4c-0.1-0.4,0.1-0.8,0.5-1
		c0.4-0.1,0.8-0.2,1.2-0.2C141,104.3,141.1,104.3,141.2,104.4z"/>
	<path class="st3" d="M142.6,100.7c0.2,0,0.5-0.1,0.4,0.3c0,0.3-0.2,0.5-0.4,0.6c-0.4-0.1-0.8-0.1-1.1,0c-0.1,0-0.3,0.1-0.4,0.1
		c-0.5,0.1-0.9,0.3-1.3,0.6c-0.1,0-0.1,0.1,0,0.1c0,0.1,0.1,0.1,0.2,0.1c0.4-0.1,0.8-0.3,1.1-0.4c0,0.2,0,0.4,0,0.6
		c0,0.2-0.1,0.3-0.1,0.5c-0.3-0.1-0.7-0.2-1-0.3c-0.2-0.1-0.3-0.2-0.4-0.4c-0.2-0.4-0.1-0.8,0.3-1.1c0.3-0.2,0.7-0.4,1.2-0.5
		c0.1,0,0.3,0,0.4-0.1c0.3,0,0.5,0,0.8,0.1C142.5,101,142.6,100.9,142.6,100.7z"/>
	<path class="st0" d="M136,117.4c0,0.5-0.3,0.9-0.8,1.1c-0.4,0.2-0.8,0.3-1.1-0.1c-0.1-0.2-0.2-0.3-0.2-0.5c0,0,0,0,0,0.1
		c0.1,0.1,0.1,0.1,0.2,0.1l0,0c0.4,0.2,1,0.1,1.3-0.3c0.3-0.4,0-0.8-0.4-0.9c0,0,0,0,0,0c0,0,0,0,0,0c0,0,0,0,0,0
		C135.5,116.7,136,116.8,136,117.4z"/>
	<path class="st0" d="M142.4,106.2c-0.2-0.1-0.3-0.2-0.4-0.3c0,0,0,0,0,0c0.1,0.1,0.2,0.1,0.2,0c0.5,0,0.9-0.5,0.9-1
		c0-0.5-0.5-0.7-0.9-0.6c0,0,0,0,0,0c0,0,0,0,0,0c0,0,0,0,0,0c0.3-0.3,0.9-0.6,1.2-0.1c0.3,0.4,0.2,1,0,1.5
		C143.2,106,142.8,106.3,142.4,106.2z"/>
	<path class="st0" d="M136.7,115.8c0.3,0.3,0.8,0.2,1.1,0c0.4-0.3,0.7-0.7,0.7-1.2c-0.1-0.6-0.6-0.6-1.1-0.5c0,0,0,0,0,0
		c0,0,0,0,0,0c0,0,0,0,0,0c0.4,0.1,0.8,0.4,0.5,0.9c-0.2,0.4-0.8,0.6-1.3,0.5c-0.1,0-0.1,0-0.2-0.1c0,0,0,0,0,0
		C136.5,115.5,136.6,115.6,136.7,115.8z"/>
	<path class="st0" d="M139.1,112.9c0.3,0.3,0.8,0.1,1.1-0.2c0.4-0.3,0.6-0.8,0.5-1.3c-0.1-0.6-0.7-0.6-1.2-0.4c0,0,0,0,0,0
		c0,0,0,0,0,0c0,0,0,0,0,0c0.4,0,0.8,0.3,0.7,0.8c-0.2,0.5-0.8,0.7-1.2,0.6c-0.1,0-0.2,0-0.2-0.1c0,0,0,0,0,0
		C138.8,112.6,138.9,112.8,139.1,112.9z"/>
	<path class="st0" d="M141.2,107.8C141.2,107.8,141.2,107.8,141.2,107.8c0.5,0,0.9,0.2,0.8,0.7c-0.1,0.5-0.6,0.8-1.1,0.8
		c-0.1,0-0.2,0-0.2-0.1c0,0,0,0,0,0c0.1,0.2,0.2,0.3,0.4,0.4c0.4,0.2,0.8,0,1.1-0.3c0.3-0.4,0.5-0.9,0.3-1.4
		C142.1,107.4,141.6,107.5,141.2,107.8C141.2,107.8,141.2,107.8,141.2,107.8C141.2,107.8,141.2,107.8,141.2,107.8z"/>
	<path class="st0" d="M142.4,100.5C142.5,100.5,142.5,100.5,142.4,100.5c0.4-0.3,0.9-0.2,1.1,0.3c0.2,0.5-0.2,1.1-0.6,1.3
		c-0.1,0.1-0.1,0.1-0.2,0c0,0,0,0-0.1,0c0.1,0.1,0.3,0.2,0.5,0.2c0.4,0.1,0.7-0.4,0.8-0.8c0.1-0.5,0-1.1-0.4-1.5
		C143.1,99.6,142.7,100,142.4,100.5C142.4,100.5,142.4,100.5,142.4,100.5C142.4,100.5,142.4,100.5,142.4,100.5z"/>
</g>
<path class="st4" d="M158.1,51.5c-7.9,7.6-10.7,16.7-12.9,27.6c-1.5,7.3-0.9,15.1-2.5,22"/>
<path class="st18" d="M166.4,50.2c-0.2,0-0.4-0.1-0.6-0.1c-2.2-0.2-5.3,0.8-6.6,1.1c0.6-0.4,2.3-1.5,3.7-2.9
	c1.9-1.7,3.3-3.9,1.4-5.2l-0.4-0.2c0,0,0,0,0,0c-2.3-1.3-3.8,0.7-4.7,3.2c-0.5,1.4-0.8,2.8-0.9,4c0.3,0.7,0.6,1.5,0.9,2.2
	c0,0,0,0,0.1,0c1.3-0.3,3.3-0.7,7-1.6c0,0,0.1,0,0.1,0c0.4,0,0.8,0.1,1.2,0.1c0-0.1,0-0.3-0.1-0.4C167.2,50.3,166.8,50.3,166.4,50.2
	z M160,46.5c0.8-2,2-3.5,3.5-2.5c1.5,1,0.3,2.5-1.3,3.9c-1.2,1-2.5,2-3.2,2.7C159.1,49.4,159.4,47.8,160,46.5z"/>
</svg>
