<?xml version="1.0" encoding="utf-8"?>
<!-- Generator: Adobe Illustrator 23.0.0, SVG Export Plug-In . SVG Version: 6.00 Build 0)  -->
<svg version="1.1" id="Layer_1" xmlns="http://www.w3.org/2000/svg" xmlns:xlink="http://www.w3.org/1999/xlink" x="0px" y="0px"
	 viewBox="0 0 648 288" style="enable-background:new 0 0 648 288;" xml:space="preserve">
<style type="text/css">
	.st0{fill:#FFFFFF;}
	.st1{fill:#39B54A;}
	.st2{fill:none;stroke:#000000;stroke-miterlimit:10;}
	.st3{fill:#FFFFFF;stroke:#000000;stroke-miterlimit:10;}
	.st4{fill:none;stroke:#000000;}
	.st5{fill-rule:evenodd;clip-rule:evenodd;fill:#1B75BC;stroke:#21409A;stroke-miterlimit:10;}
	.st6{fill-rule:evenodd;clip-rule:evenodd;fill:#EC008C;stroke:#DA1C5C;stroke-miterlimit:10;}
	.st7{fill-rule:evenodd;clip-rule:evenodd;fill:#FFFFFF;stroke:#DA1C5C;stroke-miterlimit:10;}
	.st8{fill:#F5F5F5;}
	.st9{stroke:#000000;stroke-width:0.25;}
</style>
<g>
	<path class="st0" d="M260.1,163.5c-0.2,0.5,0,1,0.3,1.3c0.3,0.3,0.7,0.6,1.1,0.3c0.2-0.1,0.3-0.3,0.4-0.4c0,0,0,0,0,0
		c-0.1,0.1-0.2,0.1-0.2,0.1c-0.5,0.1-1-0.3-1.1-0.8c-0.1-0.5,0.3-0.8,0.8-0.7c0,0,0,0,0,0c0,0,0,0,0,0c0,0,0,0,0,0
		C260.8,163,260.3,162.9,260.1,163.5z"/>
	<path class="st0" d="M260,159.9C260,159.9,260,159.9,260,159.9C260,159.9,260,159.9,260,159.9C260,159.9,260,159.9,260,159.9
		c-0.3-0.4-0.9-0.5-1.2,0c-0.2,0.4-0.1,1,0.2,1.4c0.2,0.4,0.6,0.6,1,0.5c0.2-0.1,0.3-0.2,0.4-0.4c0,0,0,0,0,0
		c-0.1,0.1-0.2,0.1-0.2,0c-0.5,0-1-0.4-1-0.9C259.1,160,259.6,159.8,260,159.9z"/>
	<path class="st0" d="M258.9,158.1c0.2-0.1,0.4-0.2,0.5-0.3c0,0,0,0-0.1,0c-0.1,0-0.2,0-0.2,0c-0.5-0.1-0.9-0.5-0.9-1
		c0.1-0.5,0.5-0.7,0.9-0.5c0,0,0,0,0,0c0,0,0,0,0,0c0,0,0,0,0,0c-0.3-0.4-0.8-0.6-1.2-0.1c-0.3,0.4-0.3,1-0.1,1.4
		C258.2,157.9,258.5,158.3,258.9,158.1z"/>
	<path class="st0" d="M258.8,150.5c0.2,0,0.4,0,0.6-0.1c0,0,0,0-0.1,0c-0.1,0-0.2,0-0.2-0.1c-0.4-0.3-0.6-0.9-0.3-1.4
		c0.3-0.5,0.8-0.4,1.1,0c0,0,0,0,0.1,0c0,0,0,0,0,0c0,0,0,0,0,0c-0.1-0.5-0.4-1-1-0.7c-0.5,0.2-0.7,0.8-0.7,1.3
		C258.2,150,258.4,150.5,258.8,150.5z"/>
	<path class="st1" d="M274.6,181c-0.1-0.1-0.2-0.2-0.3-0.3c0-2.7-2.5-4.9-4.5-6.4c-0.6-0.5-1.3-0.8-1.8-1.5
		c-0.5-0.7-0.9-1.5-1.3-2.2c-0.4-0.7-0.6-1.4-1-2.1c0-0.1-0.1-0.2-0.1-0.2c0.4-0.2,0.8-0.5,1-1c0.2-0.6,0-1.2-0.5-1.5
		c-0.6-0.4-1.4-0.2-2.1,0.1c-0.1-0.2-0.2-0.4-0.3-0.6c0.5-0.2,0.9-0.4,1.2-0.9c0.3-0.6-2.6-2-2.7-2.2c0.5-0.1-0.2-2.8-0.9-2.7
		c-0.1-0.2-0.1-0.4-0.2-0.6c0.5-0.1,1.1-0.2,1.4-0.6c0.4-0.5,0.5-1,0.1-1.5c-0.4-0.5-1.3-0.7-2.1-0.7c0-0.2,0-0.4,0-0.6
		c0.5,0,1.1,0,1.5-0.3c0.5-0.4,0.6-0.9,0.4-1.4c-0.3-0.5-1-0.9-1.8-1c0-0.2,0-0.4,0-0.6c0.5,0.1,1,0.2,1.5,0
		c0.6-0.3,0.8-0.7,0.7-1.2c-0.2-0.6-0.8-1.1-1.5-1.5c0-0.1,0-0.1,0-0.2c0.1-0.7,0.3-1.4,0.4-2c0.1-0.7-1.9-4-3-4.9
		c-1.3-1.1-2.2-2.6-3.2-4c-0.8-1.2-3.8-4.1-3.9-4c-0.1,0.2-1.8,2.5-2.2,2.8c-0.6,0.4-0.8,1-1.2,1.6c-0.4,0.7-0.9,1.3-1.5,1.8
		c-1.2,1.1-2.6,1.5-4.1,2.1c-1.5,0.6-5.1,3.5-5.5,4.1c-0.3,0.3-0.7,0.8-0.8,1.3c-0.4,0.7-1.1,1.3-1.6,1.8c-0.4,0.4-1,1-0.8,1.6
		c0.3,0.8,1.1,1.4,1.7,2c0.7,0.6,1.4,1.2,2.1,1.9c4.9,5,9.8,9.9,15.1,14.5c2.6,2.3,5.2,4.6,7.8,6.9c0.2,0.2,0.5,0.4,0.7,0.6
		c1.1,0.9,2.3,1.6,3.5,2.4c1.4,0.9,2.7,1.8,4.1,2.6c1,0.5,2.1,1.3,3.2,1.3c0.8,0,1.4-0.6,1.9-1.1C274.4,182.3,275.1,181.6,274.6,181
		z"/>
	
		<image style="overflow:visible;" width="122" height="117" xlink:href="BECEB236A32E0FA6.png"  transform="matrix(0.24 0 0 0.24 234 148.56)">
	</image>
	
		<image style="overflow:visible;" width="53" height="34" xlink:href="BECEB236A32E0FAA.png"  transform="matrix(0.24 0 0 0.24 261.6 174.96)">
	</image>
	
		<image style="overflow:visible;" width="40" height="32" xlink:href="BECEB236A32E0FAD.png"  transform="matrix(0.24 0 0 0.24 264.48 172.8)">
	</image>
	<path class="st2" d="M262.7,167.3c0.2,0.2,0.4,0.3,0.6,0.3l0,0c0.3-0.3,0.6-0.5,1-0.6c0.1-0.1,0.3-0.1,0.4-0.1
		c0.5-0.1,0.9-0.2,1.4-0.1c0.1,0,0.1,0.1,0.1,0.2c0,0.1-0.1,0.1-0.1,0.1c-0.4,0-0.7,0.1-1.1,0.2c0.2,0.3,0.4,0.6,0.6,0.9
		c0.2-0.2,0.5-0.4,0.6-0.7c0.1-0.1,0.1-0.3,0.1-0.4c0.1-0.5-0.3-1-0.8-1c-0.4,0-0.9,0-1.3,0.2c-0.1,0.1-0.3,0.1-0.4,0.2
		c-0.2,0.1-0.4,0.3-0.6,0.5c-0.1,0.1-0.3,0.1-0.4,0C262.7,166.9,262.5,167,262.7,167.3z"/>
	<path class="st3" d="M260.9,164c0.1,0.2,0.4,0.3,0.6,0.4l0,0c0.3-0.3,0.7-0.4,1.1-0.6c0.1,0,0.3-0.1,0.4-0.1
		c0.4-0.1,0.9-0.1,1.4,0.1c0.1,0,0.1,0.1,0.1,0.1c0,0.1-0.1,0.1-0.2,0.1c-0.4,0-0.7,0-1.1,0.1c0.1,0.3,0.3,0.6,0.4,1
		c0.3-0.2,0.6-0.4,0.8-0.6c0.1-0.1,0.2-0.3,0.2-0.4c0.1-0.5-0.2-1-0.7-1.1c-0.4-0.1-0.8-0.1-1.2,0.1c-0.1,0-0.3,0.1-0.4,0.2
		c-0.3,0.1-0.5,0.3-0.7,0.5c-0.1,0.1-0.3,0.1-0.4-0.1C261,163.6,260.8,163.7,260.9,164z"/>
	<path class="st3" d="M259.9,160.1c-0.2,0-0.4,0.1-0.3,0.4c0.1,0.2,0.3,0.4,0.5,0.5c0.3-0.2,0.7-0.3,1.1-0.4c0.1,0,0.3,0,0.4-0.1
		c0.5,0,1,0,1.4,0.2c0.1,0,0.1,0.1,0.1,0.1c0,0.1-0.1,0.1-0.2,0.1c-0.4-0.1-0.8-0.1-1.2-0.1c0.1,0.4,0.2,0.7,0.3,1
		c0.3-0.2,0.6-0.3,0.9-0.6c0.1-0.1,0.2-0.3,0.3-0.4c0.1-0.5-1.4-1.2-1.9-1.2c-0.1,0-0.3,0.1-0.4,0.1c-0.2,0.1-0.5,0.2-0.7,0.3
		C260.1,160.4,260,160.3,259.9,160.1z"/>
	<path class="st3" d="M259.4,156.7c-0.2,0.1-0.3,0-0.3-0.2c-0.2,0-0.5,0.1-0.4,0.3c0.1,0.3,0.3,0.4,0.5,0.5c0.3-0.1,0.7-0.2,1-0.2
		c0.2,0,0.3,0,0.4,0c0.5,0,1,0.2,1.5,0.4c0.1,0,0.1,0.1,0,0.1c0,0.1-0.1,0.1-0.2,0.1c-0.4-0.1-0.8-0.2-1.2-0.2
		c0.1,0.3,0.2,0.7,0.2,1c0,0,0,0.1,0,0.1c0.3-0.1,0.7-0.3,1-0.5c0.1-0.1,0.3-0.3,0.3-0.4c0.2-0.4,0-0.9-0.4-1.1
		c-0.4-0.2-0.9-0.3-1.4-0.3c-0.1,0-0.3,0-0.4,0.1C259.9,156.5,259.6,156.6,259.4,156.7z"/>
	<path class="st3" d="M260.1,153c-0.3,0-0.6,0-0.8,0.1c-0.2,0.1-0.3-0.1-0.3-0.2c-0.2,0-0.5,0-0.4,0.3c0,0.3,0.2,0.5,0.4,0.6
		c0.4-0.1,0.8-0.1,1.2,0c0.1,0,0.3,0.1,0.4,0.1c0.5,0.1,0.9,0.3,1.3,0.6c0.1,0,0.1,0.1,0,0.1c0,0.1-0.1,0.1-0.2,0.1
		c-0.4-0.2-0.7-0.3-1.1-0.4c0,0.4-0.1,0.7-0.1,1.1c0.4-0.1,0.8-0.1,1.1-0.3c0.2-0.1,0.3-0.2,0.4-0.4c0.2-0.4,0.2-0.8-0.2-1.1
		c-0.3-0.2-0.7-0.4-1.1-0.5C260.4,153,260.2,153,260.1,153z"/>
	<path class="st3" d="M259.7,149.1c-0.2-0.1-0.4-0.2-0.5,0.2c-0.1,0.3,0.1,0.5,0.2,0.7c0.4,0,0.8,0.1,1.1,0.3
		c0.1,0.1,0.3,0.1,0.4,0.2c0.4,0.2,0.8,0.6,1.1,0.9c0,0,0,0.1,0,0.1c-0.1,0.1-0.2,0.1-0.2,0c-0.3-0.2-0.7-0.5-1-0.7
		c-0.1,0.2-0.1,0.4-0.1,0.6c0,0.2,0,0.3,0,0.5c0.3,0,0.7,0,1-0.1c0.2-0.1,0.4-0.1,0.5-0.3c0.3-0.3,0.3-0.7,0-1.1
		c-0.3-0.3-0.6-0.6-1-0.8c-0.1-0.1-0.3-0.1-0.4-0.2c-0.3-0.1-0.5-0.1-0.8-0.1C259.7,149.4,259.6,149.2,259.7,149.1z"/>
	<path class="st0" d="M261.8,166.9c-0.1,0.5,0.1,1,0.5,1.3c0.3,0.3,0.7,0.5,1.1,0.2c0.2-0.1,0.3-0.3,0.3-0.5c0,0,0,0,0,0
		c-0.1,0.1-0.2,0.1-0.2,0.1l0,0c-0.4,0.1-1-0.2-1.2-0.6c-0.2-0.5,0.2-0.8,0.7-0.8c0,0,0,0,0,0c0,0,0,0,0,0c0,0,0,0,0,0
		C262.5,166.3,261.9,166.3,261.8,166.9z"/>
	<path class="st0" d="M258.5,154.4c0.2,0,0.4-0.1,0.5-0.2c0,0,0,0-0.1,0c-0.1,0-0.2,0-0.2,0c-0.4-0.2-0.8-0.7-0.6-1.2
		c0.1-0.5,0.7-0.6,1-0.3c0,0,0,0,0,0c0,0,0,0,0,0c0,0,0,0,0,0c-0.2-0.4-0.7-0.8-1.1-0.4c-0.4,0.3-0.5,0.9-0.3,1.4
		C257.8,154,258,154.4,258.5,154.4z"/>
	<path class="st0" d="M261.5,165.1c-0.4,0.2-0.8,0-1.1-0.3c-0.3-0.4-0.5-0.9-0.3-1.3c0.2-0.6,0.8-0.5,1.2-0.2c0,0,0,0,0,0
		c0,0,0,0,0,0c0,0,0,0,0,0c-0.4-0.1-0.9,0.2-0.8,0.7c0.1,0.5,0.6,0.8,1.1,0.8c0.1,0,0.2,0,0.2-0.1c0,0,0,0,0,0
		C261.8,164.9,261.6,165,261.5,165.1z"/>
	<path class="st0" d="M260,161.7c-0.4,0.2-0.8-0.1-1-0.5c-0.3-0.4-0.4-0.9-0.2-1.4c0.3-0.5,0.8-0.4,1.2-0.1c0,0,0,0,0,0c0,0,0,0,0,0
		c0,0,0,0,0,0c-0.4-0.1-0.9,0.1-0.8,0.6c0,0.5,0.5,0.9,1,0.9c0.1,0,0.1,0,0.2,0c0,0,0,0,0,0C260.3,161.5,260.2,161.7,260,161.7z"/>
	<path class="st0" d="M259.2,156.3C259.2,156.3,259.2,156.3,259.2,156.3c-0.4-0.2-0.9,0-1,0.5c0,0.5,0.4,1,0.9,1c0.1,0,0.1,0,0.2,0
		c0,0,0,0,0.1,0c-0.1,0.1-0.3,0.2-0.5,0.3c-0.4,0.1-0.8-0.2-1-0.6c-0.2-0.5-0.2-1,0.1-1.4C258.4,155.6,258.9,155.9,259.2,156.3
		C259.3,156.3,259.3,156.3,259.2,156.3C259.3,156.3,259.3,156.3,259.2,156.3z"/>
	<path class="st0" d="M259.9,148.9C259.9,148.9,259.9,148.9,259.9,148.9c-0.3-0.3-0.8-0.5-1.1,0c-0.3,0.5-0.1,1.1,0.3,1.4
		c0,0.1,0.1,0.1,0.2,0.1c0,0,0,0,0.1,0c-0.2,0.1-0.4,0.1-0.6,0.1c-0.4-0.1-0.6-0.5-0.6-1c0-0.5,0.3-1.1,0.7-1.3
		C259.5,147.9,259.8,148.4,259.9,148.9C259.9,148.9,259.9,148.9,259.9,148.9C259.9,148.9,259.9,148.9,259.9,148.9z"/>
</g>
<path class="st4" d="M251.4,116.8c6,6.5,7.4,13.3,8.3,22c0.5,3.9,0.3,8,0.8,11.7"/>
<path class="st5" d="M532.6,80c-1.7-1.7,0.1-0.3,3.6-3.3c0-1.5-1.7-1.5-3.4-1.5c4.7-2.1,9.4-0.2,15.2-0.1
	c8.2,38.6,7.5,89.1,8.4,132.3c-11.5,1.5-24.7,1.2-36.7,2.2c-2.3-28.5,4.3-65.4-6.6-85.9c-12.5,19.6-6.4,59.1-12.7,85.2
	c-11.6-1.7-22.8-3.7-35.8-4c4.1-43.3,6-95.3,17.9-132.7c16,2.1,32.4,0,49.6,3.1c-0.8,4.5-3.2-0.9-6.9,0.4
	C525.4,79.2,529.5,79.1,532.6,80z M494.8,76.6c0-0.9,0.1-1.8,0.1-2.8c-1.1,0-2.3-0.1-3.4-0.1C490.6,76.4,493.3,75.9,494.8,76.6z
	 M496.1,77.3c1.6-0.2,2.6,0.2,3.4,0.8c-0.4-1.2,1-4-0.5-4.2c-0.2,1.8-1.2-1-2.8-0.1C496.2,75,496.2,76.2,496.1,77.3z M501,74.7
	c-0.3,1.6,0,2.7,0.6,3.5c1.2,0,2.3,0.1,3.4,0.1c0.1-1.4,0.1-2.8,0.1-4.1C503.5,74,501.9,73.9,501,74.7z M509.2,79.1
	c1.2,0,2.3,0.1,3.5,0.1c0.8-0.8,0.9-2.4,0.8-4.1c-0.8-0.8-2.4-0.9-4.1-0.8C509.3,75.9,509.2,77.5,509.2,79.1z M514.2,75.2
	c-0.2,1.7-0.2,3.3,0.5,4.2c1.1,0,2.3,0.1,3.5,0.1c0.1-1.6,0.1-3.2,0.2-4.8C516.6,74.5,515,74.4,514.2,75.2z M525,79.7
	c1.2-2.1-1.3-5.7-5.3-5C520.4,77.4,520.7,80.4,525,79.7z M544.5,76.3c-0.5,2.9,1.7,3.3,3.3,4.3c-0.2-2.1-0.2-4.2-1.9-4.9
	C545.8,76.1,545.3,76.4,544.5,76.3z M483,78.2c1.2,0,2.3,0.1,3.5,0.1c0-1.4,0.1-2.8,0.1-4.1c-1.1,0-2.3-0.1-3.5-0.1
	C483,75.5,483,76.8,483,78.2z M538.2,80.2c1.2,0,2.3,0.1,3.5,0.1c0-0.9,0.1-1.8,0.1-2.8c-1.2,0-2.3-0.1-3.5-0.1
	C538.2,78.3,538.2,79.3,538.2,80.2z M494.7,78.6c0.3-2.1-2.2-1.5-3.4-2.2C490.3,79.1,492.9,78.5,494.7,78.6z M481.5,80.2
	c4.8,2,11.4,5.8,17.1,4.8C492.6,84.5,483.8,79.7,481.5,80.2z M501.1,92c3.3,1.8,4.2-11.2,3.2-11.6C503.3,83.3,504.1,90,501.1,92z
	 M526.1,89.4c-1.1-2.9,0.2-8.1-1.8-8.4C525,83.7,523.8,88.2,526.1,89.4z M527.5,87.4c6.3-1.6,17.4-1.9,19.5-5.5
	C541.5,84.7,533.2,84.6,527.5,87.4z M515.2,83.5c0,1.1-0.1,2.3-0.1,3.5c1.2,0,2.3,0.1,3.5,0.1c0-1.2,0.1-2.3,0.1-3.5
	C516.6,83.1,517.4,83.1,515.2,83.5z M506.1,87.3c2.6-0.8,4.7,2.2,6.2,0.2C511,87.3,505,85.7,506.1,87.3z M492.8,91.7
	c0.9,2-2,3.4-0.1,4.1c1-0.9,0.8-3,0.9-4.8c-2.2-1.8-5.8-2.2-8.9-3.1c-1.1,1.7-0.4,5.3-1.6,6.9c3.1,0.2,0.2-6,3-6.1
	C487.4,90.5,491.5,89.8,492.8,91.7z M518,103.6c2.8-0.8,1.8-12.6,1.1-12.4C518.3,98,518.8,99,518,103.6z M479.5,97.4
	c8.1,3.4,21.7,2.9,20.3-6.9C499.4,100.7,486.4,98.1,479.5,97.4z M548.5,99.2c-5-0.1-8.2,1.7-13.9,0.9c-3.2-1-5-6.9-6.7-7.1
	C527.3,99.7,541.3,103.7,548.5,99.2z M512.9,111.1c4.2,0,5.1-3.6,6.5-6.7C516.7,106.1,516.4,110.3,512.9,111.1z M552.1,116.6
	c-0.4-1.9-0.1-4.3-1.2-5.6C551.4,112.8,549.3,116.9,552.1,116.6z M512.1,114.5c16.6,10,13.7,53.4,13.1,77.2
	c-0.1,5.4-2,11.4,0.8,15.2c1.6-3.6,8.2-2.1,12.5-2.3c5.2-0.2,10.6,0.1,13.9-1.6c-8.7-0.1-17,0.9-27,1.1
	C525.2,170.8,532.3,127,512.1,114.5z M509.1,119.2c-14.8,18.8-7.9,57.5-14.7,83.8c-8.2-0.8-18.6-3.1-26.2-2.3
	c4.7,1.3,17,1.5,23.4,2.9c2,0.4,3.7,1.3,4.1,0.8C500.1,178.7,497.6,133.6,509.1,119.2z"/>
<g>
	<path class="st6" d="M174.5,66.5c2.8,25.3-38.5,27.2-37.2,1.3c-20.6,5.2-35.3,15.8-45.1,30.9c6.4,6.1,19.8,21.5,28.6,9.9
		c-0.1-0.7,0.1-0.1,0,0c3.2,16.5,3.6,15.4,5.3,29.1c3.2,24.8,0.5,53.4-1.9,66.8c20.7,9.1,61.3,2.1,84.7-8.7
		c-22.7-25.4-14.2-96.4-15.6-89.4c10.3,10.1,21.8-6,28.1-12.4C210.4,80,195.3,70.2,174.5,66.5z"/>
	<g>
		<path class="st7" d="M175.7,67.6c0.8,0,0.7,0.8,0.9,1.4c1.9,23.4-42.5,24.6-40.5-0.1"/>
		<path class="st7" d="M138.6,69.5c9.4,3.5,26.3,2.8,35.5-1.2"/>
	</g>
</g>
<g>
	<path d="M250.6,118.9c-1-0.1-1.7-0.5-2-0.9c-0.1-0.2-0.1-0.5,0.1-0.9c0.2-0.4,0.8-0.9,1.3-1.1c0.6-0.2,1.2,0.5,1.3,0.7L250.6,118.9
		z"/>
</g>
<g>
	<path class="st8" d="M312.6,115c0.6,0,1.3,0.7,2.2,2.2c-0.5,2.2-0.7,5.1-0.7,8.9v2.2h0.7l2.2-0.4l1.1,0.4v1.5l-3.9,3.7v5.5
		c0,1.3,0.5,2.2,1.4,2.6l4.7-1.9l0.3,1.5l0.4,0.4v0.4c-2.1,2-4.5,3-7.2,3c-2.9,0-4-3.6-3.4-10.8c-2.4,1.5-3.5,1.3-3.4-0.7v-1.1
		l3.6-1.8l-0.2-4.3c0.6-7.2,0.9-10.8,0.9-10.9L312.6,115z"/>
	<path class="st8" d="M322.1,118.8c1.7,0,2.5,1.7,2.5,5.2l0.7,9.6h0.4c2.2-3.7,4.2-5.5,6.1-5.5c2.5,0,4.3,3.2,5.4,9.6l-0.1,6.1
		c0,2.5-0.8,3.7-2.5,3.7c-0.5-0.4-1.2-4.8-2.1-13.1l-1.8-2.2c-2,0-3.6,4.9-4.7,14.8l-1.4,1.1h-0.7c-1,0-1.6-2.5-1.8-7.4
		c-1.2-7.8-1.8-13.8-1.8-18.1v-0.4l-0.4-0.4C320,120.8,320.7,119.8,322.1,118.8z"/>
	<path class="st8" d="M346.6,123.5c4.1,0.9,6.1,3,6.1,6.3l0.4,2.2c0,3.2-1.2,4.8-3.6,4.8l-6.5,0.7v0.4c0,2.6,2,4.4,6.1,5.2h0.7
		l3.6-0.7v0.7c-1.6,2.2-3.3,3.3-5,3.3c-3.6,0-6.7-2.7-9.3-8.1l-0.7-3.7c0-3.8,2.5-7.5,7.5-11.1H346.6z M342.3,133.9h1.8
		c4.1,0,6.1-0.5,6.1-1.5v-3.7c0-1.4-0.6-2.2-1.8-2.6C344.3,128.2,342.3,130.8,342.3,133.9z"/>
</g>
<path class="st8" d="M254.1,69.6c17.7,1.5,26.5,8.8,26.5,21.8c0,13.9-10.1,25.6-30.3,35.1c-4.4,0-7.3,0.6-8.5,1.9h-2.8
	c-2.6,0-6.1-13.9-10.4-41.7c-1,0-1.9-3.2-2.8-9.5C227,72.7,236.5,70.2,254.1,69.6z M237,82.9c3.6,21.1,6.5,32.5,8.5,34.1h1.9
	c15.8-6.3,23.7-16.4,23.7-30.3v-1c-3.7-5.7-9.1-8.5-16.1-8.5C243,77.9,237,79.8,237,82.9z"/>
<path class="st8" d="M315.3,66.2c4.8,0,8,3.5,9.5,10.4c-0.9,5.7-3.8,13.9-8.5,24.6c10.3,3.8,20.4,5.7,30.3,5.7l2.8,4.7
	c0,2.5-2.8,4.7-8.5,6.6c-24.9-5.1-39.2-8.8-42.7-11.4h-1.9c1.4,12.7,3,20.6,4.7,23.7c-1.3,3.8-2.5,5.7-3.8,5.7h-3.8
	c-3.3,0-6.8-17.1-10.4-51.2c0.9-4.4,2.2-6.6,3.8-6.6h1.9l5.7,5.7c6.2-9.8,10.9-15.2,14.2-16.1L315.3,66.2z M297.2,99.3v0.9
	c10.7-3.7,16.1-10.7,16.1-20.8v-4.7h-3.8C301.4,80.3,297.2,88.5,297.2,99.3z"/>
<path class="st8" d="M369.8,73.2c10.7,2.2,16.1,7.6,16.1,16.1l0.9,5.7c0,8.2-3.2,12.3-9.5,12.3l-17.1,1.9v0.9
	c0,6.8,5.4,11.2,16.1,13.3h1.9l9.5-1.9v1.9c-4.3,5.7-8.8,8.5-13.3,8.5c-9.6,0-17.8-7-24.6-20.9l-1.9-9.5c0-9.7,6.6-19.2,19.9-28.4
	H369.8z M358.4,99.8h4.7c10.7,0,16.1-1.3,16.1-3.8v-9.5c0-3.5-1.6-5.8-4.7-6.6C363.8,85.3,358.4,91.9,358.4,99.8z"/>
<path class="st8" d="M415.9,73.4c5.7,1.3,8.5,2.8,8.5,4.7v3.8c-12.7-0.9-20.6,3.5-23.7,13.3c0,3.8,5.1,8.2,15.2,13.3
	c3.2,3.8,4.7,6.7,4.7,8.5c-3.4,10.1-10.3,15.2-20.9,15.2c-4,0-6.8-1.6-8.5-4.7c2.2-2.7,4.9-3.9,8-3.5c3.1,0.4,6.2-1.3,9.1-5l0.9-2.8
	c-12.6-7.5-19-14.8-19-21.8v-3.8C398.8,79.1,407.3,73.4,415.9,73.4z"/>
<path class="st8" d="M452.6,73.4c5.7,1.3,8.5,2.8,8.5,4.7v3.8c-12.7-0.9-20.6,3.5-23.7,13.3c0,3.8,5.1,8.2,15.2,13.3
	c3.2,3.8,4.7,6.7,4.7,8.5c-3.4,10.1-10.3,15.2-20.8,15.2c-4,0-6.8-1.6-8.5-4.7c2.2-2.7,4.9-3.9,8-3.5c3.1,0.4,6.2-1.3,9.1-5l1-2.8
	c-12.6-7.5-19-14.8-19-21.8v-3.8C435.5,79.1,444,73.4,452.6,73.4z"/>
<g>
	<path class="st8" d="M309.4,148.2c2.1,0.7,3,1.7,2.9,3.2c-0.6,1.8-4.5,4-11.7,6.7C292,166,287.3,174,286.7,182l-0.3,3.8
		c-0.8,9.5,3.3,14.6,12.3,15.3c9.6,0.7,16.8-2,21.4-8.2l4,0.3l1.5,1.6l-0.1,1.5c-3.6,7.4-12.1,11.3-25.6,11.7
		c-10.5-0.8-17.2-6.1-20.2-15.9l-0.7-10.6c1-11.6,9-22.4,24.2-32.1L309.4,148.2z"/>
	<path class="st8" d="M332.8,150.5c3.7,0,5.6,3.5,5.6,10.5l1.6,19.6h0.8c4.9-7.5,9.4-11.3,13.5-11.3c5.5,0,9.4,6.5,11.9,19.6
		l-0.2,12.5c0,5-1.9,7.5-5.5,7.5c-1.1-0.9-2.7-9.8-4.6-26.8l-4-4.5c-4.4,0-7.9,10-10.3,30.1l-3.2,2.3h-1.6c-2.2,0-3.5-5-4-15
		c-2.6-15.8-4-28.1-4-36.9v-0.8l-0.8-0.8C328,154.7,329.6,152.7,332.8,150.5z"/>
	<path class="st8" d="M375.3,155h0.8l3.2,3v2.3c-1,1.8-2.6,3.1-4.8,3.8c-2.4-1-3.7-2-4-3v-1.5C370.6,156.5,372.1,155,375.3,155z
		 M376.9,171.5h0.8c2.1,0.7,3.2,2.9,3.2,6.8v11.3c0.8,5.5,2.1,8.3,4,8.3h5.6v2.3c-1.2,1.9-3.3,3.6-6.3,5.3h-1.6
		c-5.5,0-9.2-5.5-11.1-16.6l-0.8-9.8C370.6,174,372.7,171.5,376.9,171.5z"/>
	<path class="st8" d="M396.1,146.3c3.2,0,4.8,5.1,4.8,15.2v29.1l0.8,6.3h1.6l7.9-3.2v2.5c-4.1,5.1-8.3,7.6-12.7,7.6
		c-2.5,0-4.4-4.2-5.6-12.6v-1.3l0.8-6.9c-0.7-17.8-1.8-28.3-3.2-31.6C390.5,149.1,392.4,147.5,396.1,146.3z"/>
	<path class="st8" d="M441.1,143.3c4.2,0,6.4,6,6.4,18.1c2.1,7.7,3.2,17.5,3.2,29.3c0,11.5-1.3,17.3-4,17.3c-3.2-1-4.8-3-4.8-6
		l0.8-22.6l-0.8-3.8h-0.8c-10.9,0-17.8,4-20.6,12v6c0,4,1.8,6,5.5,6c3.5,0,7.7-3,12.7-9l2.4-0.8v0.8c-3.5,10-8.8,15.1-15.9,15.1
		c-6.6,0-10.8-4.5-12.7-13.5c0-10.9,7.4-18.9,22.2-24.1l6.3,1.5v-0.8l-2.4-21.1v-2.3L441.1,143.3z"/>
</g>
<path class="st9" d="M250.1,116.3c-0.5-0.1-0.8-0.1-0.9,0.4c-2.7-1-6.1-4.3-7.8-2.7c-0.3,0.3-0.6,0.8-0.8,1.6
	c-0.7,3.2,3.2,3,5.9,2.5c1-0.2,1.9-0.4,2.2-0.5c-0.3,0.3-0.8,0.7-1.4,1.2c-0.9,0.7-1.9,1.6-2.5,2.9c0,0,0.1,0.2,0.1,0.2
	c-0.1,0.3-0.2,0.8-0.3,1.3c0.2,0.1,0.3,0.1,0.5,0.1c0-0.3,0.1-0.9,0.2-1.1c0.1,0,0.2,0.1,0.2,0.1c0.5-0.9,3.5-3.7,3.9-4
	c0,0,0.1-0.1,0.1-0.1c0.4,0,0.8-0.1,1.3-0.5c-0.2-0.8-0.5-1.5-0.7-2.3C250.2,115.8,250.2,116.1,250.1,116.3z M245.7,117.5
	c-1.8,0.3-3.9,0.2-3.7-1.4c0.1-0.6,0.3-1,0.6-1.2c1.1-0.7,3.5,1,5.5,2.1C247.6,117.1,246.7,117.4,245.7,117.5z"/>
<g>
	<path class="st0" d="M230.1,180.5c0,0.5-0.2,0.9-0.7,1.2c-0.4,0.2-0.8,0.4-1.1,0c-0.1-0.1-0.2-0.3-0.3-0.5c0,0,0,0,0,0
		c0.1,0.1,0.1,0.1,0.2,0.1c0.4,0.2,1,0,1.3-0.5c0.2-0.5-0.1-0.8-0.5-0.9c0,0,0,0,0,0c0,0,0,0,0,0c0,0,0,0,0,0
		C229.4,179.8,230,179.8,230.1,180.5z"/>
	<path class="st0" d="M231.1,177C231.1,177,231.1,177,231.1,177C231.1,177,231,177,231.1,177C231,177,231.1,177,231.1,177
		c0.4-0.3,1-0.3,1.1,0.3c0.1,0.5-0.1,1-0.5,1.3c-0.3,0.3-0.8,0.5-1.1,0.2c-0.2-0.1-0.3-0.3-0.3-0.5c0,0,0,0,0,0
		c0.1,0.1,0.2,0.1,0.2,0.1c0.4,0.1,1-0.1,1.2-0.6C231.9,177.3,231.5,177,231.1,177z"/>
	<path class="st0" d="M232.5,175.6c-0.2-0.1-0.3-0.3-0.4-0.4c0,0,0,0,0,0c0.1,0.1,0.2,0.1,0.2,0.1c0.5,0.1,1-0.3,1.1-0.8
		c0.1-0.5-0.3-0.8-0.8-0.7c0,0,0,0,0,0c0,0,0,0,0,0c0,0,0,0,0,0c0.4-0.3,1-0.4,1.2,0.2c0.2,0.5,0,1-0.3,1.4
		C233.3,175.6,232.9,175.8,232.5,175.6z"/>
	<path class="st0" d="M234.6,168.3c-0.2,0-0.4-0.1-0.5-0.2c0,0,0,0,0.1,0c0.1,0,0.2,0,0.2,0c0.4-0.1,0.8-0.7,0.6-1.3
		c-0.2-0.6-0.7-0.6-1-0.3c0,0,0,0,0,0c0,0,0,0,0,0c0,0,0,0,0,0c0.2-0.4,0.6-0.9,1.1-0.4c0.4,0.4,0.5,1,0.4,1.5
		C235.4,167.9,235.1,168.3,234.6,168.3z"/>
	<path class="st1" d="M211.7,195.4c0.4,0.6,0.8,1.4,1.6,1.5c1.1,0.3,2.4-0.2,3.4-0.4c1.6-0.4,3.1-1,4.7-1.4c1.4-0.4,2.7-0.8,4-1.4
		c0.3-0.1,0.6-0.3,0.8-0.4c3.1-1.6,6.2-3.2,9.3-4.7c6.3-3,12.3-6.5,18.4-10.1c0.8-0.5,1.7-0.8,2.5-1.3c0.7-0.4,1.7-0.8,2.2-1.5
		c0.4-0.6-0.1-1.3-0.3-1.8c-0.3-0.7-0.9-1.4-1.1-2.2c-0.1-0.5-0.3-1.1-0.5-1.5c-0.3-0.7-3-4.5-4.3-5.4c-1.2-0.9-2.5-1.7-3.4-3.1
		c-0.4-0.7-0.8-1.4-1-2.2c-0.2-0.7-0.3-1.3-0.8-1.8c-0.3-0.5-1.4-3.1-1.4-3.3c0-0.1-3.7,1.9-4.8,2.8c-1.3,1.1-2.6,2.4-4.1,3.1
		c-1.2,0.6-4.1,3.3-4.1,3.9c0,0.7-0.1,1.4-0.1,2.1c0,0.1,0,0.1,0,0.2c-0.8,0.1-1.5,0.5-1.8,1c-0.3,0.5-0.1,0.9,0.3,1.3
		c0.4,0.3,0.9,0.4,1.4,0.4c0,0.2-0.1,0.4-0.1,0.6c-0.8-0.1-1.5,0.1-2,0.5c-0.4,0.4-0.4,1,0,1.5c0.3,0.4,0.9,0.6,1.4,0.7
		c-0.1,0.2-0.1,0.4-0.2,0.6c-0.8-0.3-1.7-0.3-2.2,0.1c-0.5,0.4-0.6,0.9-0.3,1.5c0.2,0.5,0.7,0.7,1.2,0.9c-0.1,0.2-0.2,0.4-0.3,0.6
		c-0.7-0.3-2,2.1-1.6,2.3c-0.1,0.2-3.3,0.8-3.2,1.5c0.1,0.5,0.5,0.9,0.9,1.2c-0.1,0.2-0.3,0.3-0.4,0.5c-0.6-0.5-1.4-0.8-2-0.6
		c-0.6,0.2-0.9,0.7-0.8,1.3c0,0.5,0.4,0.9,0.7,1.2c-0.1,0.1-0.1,0.1-0.2,0.2c-0.5,0.6-1,1.2-1.5,1.8c-0.6,0.6-1.2,1.3-1.8,1.8
		c-0.6,0.5-1.4,0.7-2.1,1c-2.3,0.9-5.3,2.4-6,5c-0.1,0.1-0.2,0.1-0.3,0.2C210.8,194.1,211.4,194.9,211.7,195.4z"/>
	
		<image style="overflow:visible;" width="144" height="86" xlink:href="BECEB236A32E0FAE.png"  transform="matrix(0.24 0 0 0.24 223.92 172.32)">
	</image>
	
		<image style="overflow:visible;" width="56" height="24" xlink:href="BECEB236A32E0FAC.png"  transform="matrix(0.24 0 0 0.24 211.68 190.56)">
	</image>
	
		<image style="overflow:visible;" width="44" height="24" xlink:href="BECEB236A32E0FAB.png"  transform="matrix(0.24 0 0 0.24 212.16 187.44)">
	</image>
	<path class="st2" d="M226.6,183.4c-0.2,0.2-0.4,0.2-0.7,0.1v0c-0.2-0.3-0.5-0.6-0.8-0.9c-0.1-0.1-0.2-0.2-0.4-0.3
		c-0.4-0.2-0.9-0.4-1.3-0.5c-0.1,0-0.1,0.1-0.1,0.1c0,0.1,0,0.1,0.1,0.2c0.3,0.1,0.7,0.3,1,0.5c-0.3,0.2-0.5,0.4-0.8,0.7
		c-0.2-0.3-0.4-0.5-0.4-0.8c0-0.2-0.1-0.3,0-0.4c0.1-0.5,0.5-0.9,1.1-0.8c0.4,0.1,0.8,0.3,1.2,0.5c0.1,0.1,0.2,0.2,0.3,0.3
		c0.2,0.2,0.3,0.4,0.4,0.6c0.1,0.2,0.3,0.2,0.4,0.1C226.7,183.1,226.8,183.3,226.6,183.4z"/>
	<path class="st3" d="M229.1,180.7c-0.2,0.2-0.4,0.2-0.7,0.2v0c-0.3-0.3-0.6-0.6-0.9-0.8c-0.1-0.1-0.2-0.1-0.4-0.2
		c-0.4-0.2-0.9-0.3-1.3-0.3c-0.1,0-0.1,0.1-0.1,0.1c0,0.1,0.1,0.1,0.1,0.2c0.4,0.1,0.7,0.2,1,0.3c-0.2,0.3-0.4,0.6-0.7,0.8
		c-0.2-0.3-0.4-0.5-0.6-0.8c-0.1-0.2-0.1-0.3-0.1-0.5c0-0.5,0.4-0.9,1-0.8c0.4,0,0.8,0.2,1.1,0.4c0.1,0.1,0.3,0.2,0.4,0.3
		c0.2,0.2,0.4,0.4,0.6,0.6c0.1,0.2,0.3,0.1,0.4,0C229.1,180.4,229.3,180.5,229.1,180.7z"/>
	<path class="st3" d="M231.1,177.3c0.2,0.1,0.4,0.2,0.2,0.5c-0.2,0.2-0.4,0.3-0.6,0.3c-0.3-0.3-0.6-0.5-0.9-0.7
		c-0.1-0.1-0.3-0.1-0.4-0.2c-0.5-0.1-0.9-0.2-1.4-0.2c-0.1,0-0.1,0.1-0.1,0.1c0,0.1,0.1,0.2,0.1,0.2c0.4,0,0.8,0.1,1.1,0.2
		c-0.2,0.3-0.4,0.6-0.6,0.9c-0.3-0.2-0.5-0.5-0.7-0.8c-0.1-0.2-0.1-0.3-0.1-0.5c0-0.5,1.7-0.8,2.1-0.6c0.1,0.1,0.3,0.1,0.4,0.2
		c0.2,0.1,0.4,0.3,0.6,0.5C230.8,177.4,231,177.4,231.1,177.3z"/>
	<path class="st3" d="M232.4,174.1c0.1,0.1,0.3,0,0.4-0.1c0.2,0.1,0.4,0.2,0.3,0.4c-0.1,0.2-0.4,0.3-0.6,0.4
		c-0.3-0.2-0.6-0.4-0.9-0.5c-0.1,0-0.3-0.1-0.4-0.1c-0.5-0.1-1-0.1-1.5,0c-0.1,0-0.1,0.1-0.1,0.1c0,0.1,0.1,0.1,0.2,0.1
		c0.4,0,0.8,0,1.2,0.1c-0.2,0.3-0.3,0.6-0.5,0.9c0,0,0,0,0,0.1c-0.3-0.2-0.6-0.4-0.8-0.7c-0.1-0.2-0.2-0.3-0.2-0.5
		c-0.1-0.5,0.2-0.9,0.7-1c0.4-0.1,0.9,0,1.4,0.1c0.1,0,0.3,0.1,0.4,0.2C232.1,173.8,232.3,173.9,232.4,174.1z"/>
	<path class="st3" d="M232.8,170.3c0.3,0.1,0.5,0.2,0.8,0.3c0.2,0.1,0.3,0,0.3-0.2c0.2,0,0.4,0.1,0.4,0.4c-0.1,0.3-0.3,0.4-0.5,0.5
		c-0.4-0.2-0.7-0.3-1.1-0.3c-0.1,0-0.3,0-0.4,0c-0.5,0-0.9,0.1-1.4,0.3c-0.1,0-0.1,0.1-0.1,0.1c0,0.1,0.1,0.1,0.2,0.1
		c0.4-0.1,0.8-0.1,1.2-0.1c-0.1,0.4-0.1,0.7-0.2,1.1c-0.3-0.2-0.7-0.3-1-0.6c-0.1-0.1-0.2-0.3-0.3-0.4c-0.1-0.4,0.1-0.8,0.5-1
		c0.4-0.1,0.8-0.2,1.2-0.2C232.5,170.2,232.7,170.3,232.8,170.3z"/>
	<path class="st3" d="M234.2,166.6c0.2,0,0.5-0.1,0.4,0.3c0,0.3-0.2,0.5-0.4,0.6c-0.4-0.1-0.8-0.1-1.1,0c-0.1,0-0.3,0.1-0.4,0.1
		c-0.5,0.1-0.9,0.3-1.3,0.6c-0.1,0-0.1,0.1,0,0.1c0,0.1,0.1,0.1,0.2,0.1c0.4-0.1,0.8-0.3,1.1-0.4c0,0.2,0,0.4,0,0.6
		c0,0.2-0.1,0.3-0.1,0.5c-0.3-0.1-0.7-0.2-1-0.3c-0.2-0.1-0.3-0.2-0.4-0.4c-0.2-0.4-0.1-0.8,0.3-1.1c0.3-0.2,0.7-0.4,1.2-0.5
		c0.1,0,0.3,0,0.4-0.1c0.3,0,0.5,0,0.8,0.1C234.1,166.9,234.2,166.8,234.2,166.6z"/>
	<path class="st0" d="M227.6,183.3c0,0.5-0.3,0.9-0.8,1.1c-0.4,0.2-0.8,0.3-1.1-0.1c-0.1-0.2-0.2-0.3-0.2-0.5c0,0,0,0,0,0.1
		c0.1,0.1,0.1,0.1,0.2,0.1l0,0c0.4,0.2,1,0.1,1.3-0.3c0.3-0.4,0-0.8-0.4-0.9c0,0,0,0,0,0c0,0,0,0,0,0c0,0,0,0,0,0
		C227,182.6,227.6,182.7,227.6,183.3z"/>
	<path class="st0" d="M234,172.1c-0.2-0.1-0.3-0.2-0.4-0.3c0,0,0,0,0,0c0.1,0.1,0.2,0.1,0.2,0c0.5,0,0.9-0.5,0.9-1
		c0-0.5-0.5-0.7-0.9-0.6c0,0,0,0,0,0c0,0,0,0,0,0c0,0,0,0,0,0c0.3-0.3,0.9-0.6,1.2-0.1c0.3,0.4,0.2,1,0,1.5
		C234.7,171.9,234.4,172.2,234,172.1z"/>
	<path class="st0" d="M228.3,181.7c0.3,0.3,0.8,0.2,1.1,0c0.4-0.3,0.7-0.7,0.7-1.2c-0.1-0.6-0.6-0.6-1.1-0.5c0,0,0,0,0,0
		c0,0,0,0,0,0c0,0,0,0,0,0c0.4,0.1,0.8,0.4,0.5,0.9c-0.2,0.4-0.8,0.6-1.3,0.5c-0.1,0-0.1,0-0.2-0.1c0,0,0,0,0,0
		C228.1,181.4,228.1,181.5,228.3,181.7z"/>
	<path class="st0" d="M230.6,178.8c0.3,0.3,0.8,0.1,1.1-0.2c0.4-0.3,0.6-0.8,0.5-1.3c-0.1-0.6-0.7-0.6-1.2-0.4c0,0,0,0,0,0
		c0,0,0,0,0,0c0,0,0,0,0,0c0.4,0,0.8,0.3,0.7,0.8c-0.2,0.5-0.8,0.7-1.2,0.6c-0.1,0-0.2,0-0.2-0.1c0,0,0,0,0,0
		C230.3,178.5,230.4,178.7,230.6,178.8z"/>
	<path class="st0" d="M232.7,173.7C232.7,173.7,232.8,173.7,232.7,173.7c0.5,0,0.9,0.2,0.8,0.7c-0.1,0.5-0.6,0.8-1.1,0.8
		c-0.1,0-0.2,0-0.2-0.1c0,0,0,0,0,0c0.1,0.2,0.2,0.3,0.4,0.4c0.4,0.2,0.8,0,1.1-0.3c0.3-0.4,0.5-0.9,0.3-1.4
		C233.7,173.3,233.1,173.4,232.7,173.7C232.7,173.7,232.7,173.7,232.7,173.7C232.7,173.7,232.7,173.7,232.7,173.7z"/>
	<path class="st0" d="M234,166.4C234,166.4,234,166.4,234,166.4c0.4-0.3,0.9-0.2,1.1,0.3c0.2,0.5-0.2,1.1-0.6,1.3
		c-0.1,0.1-0.1,0.1-0.2,0c0,0,0,0-0.1,0c0.1,0.1,0.3,0.2,0.5,0.2c0.4,0.1,0.7-0.4,0.8-0.8c0.1-0.5,0-1.1-0.4-1.5
		C234.6,165.5,234.2,166,234,166.4C234,166.4,234,166.4,234,166.4C234,166.4,234,166.4,234,166.4z"/>
</g>
<path class="st4" d="M249.6,117.4c-7.9,7.6-10.7,16.7-12.9,27.6c-1.5,7.3-0.9,15.1-2.5,22"/>
<path class="st9" d="M257.9,116.2c-0.2,0-0.4-0.1-0.6-0.1c-2.2-0.2-5.3,0.8-6.6,1.1c0.6-0.4,2.3-1.5,3.7-2.9
	c1.9-1.7,3.3-3.9,1.4-5.2l-0.4-0.2c0,0,0,0,0,0c-2.3-1.3-3.8,0.7-4.7,3.2c-0.5,1.4-0.8,2.8-0.9,4c0.3,0.7,0.6,1.5,0.9,2.2
	c0,0,0,0,0.1,0c1.3-0.3,3.3-0.7,7-1.6c0,0,0.1,0,0.1,0c0.4,0,0.8,0.1,1.2,0.1c0-0.1,0-0.3-0.1-0.4
	C258.7,116.2,258.4,116.2,257.9,116.2z M251.5,112.4c0.8-2,2-3.5,3.5-2.5c1.5,1,0.3,2.5-1.3,3.9c-1.2,1-2.5,2-3.2,2.7
	C250.6,115.3,251,113.7,251.5,112.4z"/>
</svg>
